<svg width="882" height="551" viewBox="0 0 882 551" fill="none" xmlns="http://www.w3.org/2000/svg">
<path opacity="0.3" d="M841.048 141.595L838.901 142.074C828.993 144.264 785.539 153.637 724.426 163.467L724.48 163.521V245.688H850.403V331.111H724.48V550.858H629.616V331.111H537.417V550.858H302.434V331.111H257.395V550.858H162.53V331.111H34.7578V245.688H162.53V164.389C89.6963 152.829 40.415 141.595 40.415 141.595L0 0L152.032 52.8066C152.032 52.8066 293.881 84.221 437.315 84.7119L440.704 84.7178C585.285 84.7178 729.376 52.8066 729.376 52.8066L881.463 0L841.048 141.595ZM729.703 53.751L729.648 53.7705L729.592 53.7832L729.376 52.8066L729.59 53.7832C729.589 53.7834 729.587 53.7837 729.585 53.7842C729.58 53.7852 729.573 53.7871 729.564 53.7891C729.547 53.793 729.52 53.799 729.485 53.8066C729.415 53.8221 729.31 53.8447 729.171 53.875C728.893 53.9356 728.478 54.0255 727.932 54.1426C726.839 54.3768 725.218 54.7204 723.104 55.1572C718.877 56.0308 712.678 57.2785 704.789 58.7754C689.01 61.7692 666.467 65.7607 639.403 69.752C585.282 77.7338 513.061 85.7178 440.704 85.7178C368.347 85.7178 296.127 77.7338 242.005 69.752C214.942 65.7607 192.398 61.7692 176.619 58.7754C168.73 57.2785 162.531 56.0308 158.304 55.1572C156.19 54.7204 154.569 54.3768 153.477 54.1426C152.93 54.0255 152.515 53.9356 152.237 53.875C152.098 53.8447 151.993 53.8221 151.923 53.8066C151.888 53.799 151.862 53.793 151.844 53.7891C151.835 53.7871 151.828 53.7852 151.823 53.7842C151.821 53.7837 151.819 53.7834 151.818 53.7832L152.032 52.8066L151.816 53.7832L151.76 53.7705L151.704 53.751L1.48926 1.5752L41.2139 140.749C41.5915 140.834 42.1522 140.961 42.8906 141.124C44.3783 141.453 46.5861 141.936 49.4629 142.553C55.2164 143.786 63.6477 145.55 74.3545 147.676C95.7687 151.927 126.285 157.624 162.688 163.401L163.53 163.535V246.688H35.7578V330.111H163.53V549.858H256.395V330.111H303.434V549.858H536.417V330.111H630.616V549.858H723.48V330.111H849.403V246.688H723.48V163.936L722.331 162.79L724.267 162.479C759.174 156.865 788.317 151.399 808.732 147.337C818.94 145.306 826.965 143.627 832.438 142.455C835.174 141.869 837.272 141.41 838.686 141.098C839.368 140.947 839.89 140.829 840.248 140.749L879.973 1.5752L729.703 53.751ZM456.771 484.887H396.243V330.111H456.771V484.887ZM397.243 483.887H455.771V331.111H397.243V483.887ZM257.454 176.366C272.134 178.048 287.14 179.621 302.471 181.031L303.379 181.115V246.688H256.34V176.239L257.454 176.366ZM630.562 246.688H396.188V187.071L397.222 187.106C411.735 187.595 426.248 187.865 440.704 187.865C504.784 187.865 570.343 182.659 629.444 175.661L630.562 175.529V246.688ZM257.34 245.688H302.379V182.027C287.04 180.616 272.026 179.043 257.34 177.36V245.688ZM629.562 176.654C570.435 183.655 504.835 188.865 440.704 188.865L435.275 188.853C422.604 188.794 409.896 188.533 397.188 188.105V245.688H629.562V176.654Z" fill="#B91B22"/>
</svg>
