<svg width="25" height="19" viewBox="0 0 25 19" fill="none" xmlns="http://www.w3.org/2000/svg">
<path d="M0.188232 1.18848C0.188232 0.636192 0.635948 0.188477 1.18823 0.188477H15.1882C15.7405 0.188477 16.1882 0.636192 16.1882 1.18848C16.1882 1.74076 15.7405 2.18848 15.1882 2.18848H1.18823C0.635947 2.18848 0.188232 1.74076 0.188232 1.18848Z" fill="black"/>
<path d="M0.188232 9.18848C0.188232 8.63619 0.635948 8.18848 1.18823 8.18848H19.1882C19.7405 8.18848 20.1882 8.63619 20.1882 9.18848C20.1882 9.74076 19.7405 10.1885 19.1882 10.1885H1.18823C0.635948 10.1885 0.188232 9.74076 0.188232 9.18848Z" fill="black"/>
<path d="M0.188232 17.1885C0.188232 16.6362 0.635948 16.1885 1.18823 16.1885H23.1882C23.7405 16.1885 24.1882 16.6362 24.1882 17.1885C24.1882 17.7408 23.7405 18.1885 23.1882 18.1885H1.18823C0.635948 18.1885 0.188232 17.7408 0.188232 17.1885Z" fill="black"/>
</svg>
