<svg width="48" height="48" viewBox="0 0 48 48" fill="none" xmlns="http://www.w3.org/2000/svg">
<mask id="mask0_57_63" style="mask-type:alpha" maskUnits="userSpaceOnUse" x="0" y="0" width="48" height="48">
<rect x="0.5" y="0.5" width="47" height="47" fill="#D9D9D9" stroke="#D61321"/>
</mask>
<g mask="url(#mask0_57_63)">
<path d="M5.35751 40.01H10.6343V43.32C10.6343 43.3438 10.6153 43.3629 10.5914 43.3629H5.40045C5.3766 43.3629 5.35751 43.3438 5.35751 43.32V40.01Z" fill="white" stroke="#D61321" stroke-width="2" stroke-miterlimit="10"/>
<path d="M38.7271 40.01H44.0039V43.32C44.0039 43.3438 43.9848 43.3629 43.961 43.3629H38.77C38.7462 43.3629 38.7271 43.3438 38.7271 43.32V40.01Z" fill="white" stroke="#D61321" stroke-width="2" stroke-miterlimit="10"/>
<path d="M46.1558 24.2839H2.65904C2.61063 24.2839 2.57138 24.3231 2.57138 24.3714V39.9232C2.57138 39.9715 2.61063 40.0107 2.65904 40.0107H46.1558C46.2042 40.0107 46.2435 39.9715 46.2435 39.9232V24.3714C46.2435 24.3231 46.2042 24.2839 46.1558 24.2839Z" fill="#D61321" stroke="#D61321" stroke-width="2" stroke-miterlimit="10"/>
<path d="M7.79506 17.7434H40.9326C42.5856 17.7434 43.9273 19.0819 43.9273 20.731V24.2831H4.80034V20.731C4.80034 19.0819 6.14206 17.7434 7.79506 17.7434Z" fill="white" stroke="#D61321" stroke-width="2" stroke-miterlimit="10"/>
<path d="M3.12868 29.4065H45.6522" stroke="white" stroke-width="2" stroke-miterlimit="10" stroke-linecap="round"/>
<path d="M9.53151 5.14282H39.4358C39.8943 5.14282 40.2664 5.51404 40.2664 5.97152V17.7434H8.70084V5.97152C8.70084 5.51404 9.07294 5.14282 9.53151 5.14282Z" fill="#D61321" stroke="#D61321" stroke-width="2" stroke-miterlimit="10"/>
<path d="M31.9777 16.345H17.2751V9.28848C17.2751 8.87939 17.7187 8.57494 18.1928 8.65697C19.5467 8.89201 22.1842 9.28638 24.6264 9.28638C27.0686 9.28638 29.7055 8.89201 31.06 8.65697C31.5341 8.57494 31.9777 8.87939 31.9777 9.28848V16.3444V16.345Z" fill="white" stroke="white" stroke-width="2" stroke-miterlimit="10"/>
</g>
</svg>
