<svg width="48" height="48" viewBox="0 0 48 48" fill="none" xmlns="http://www.w3.org/2000/svg">
<mask id="mask0_57_26" style="mask-type:alpha" maskUnits="userSpaceOnUse" x="0" y="0" width="48" height="48">
<rect x="0.5" y="0.5" width="47" height="47" fill="#D9D9D9" stroke="#D61321"/>
</mask>
<g mask="url(#mask0_57_26)">
<path d="M10.3579 16.0423C7.8496 16.0423 5.81052 14.0032 5.81052 11.4949C5.81052 8.9866 7.8496 6.94751 10.3579 6.94751C12.8662 6.94751 14.9053 8.9866 14.9053 11.4949C14.9053 14.0032 12.8662 16.0423 10.3579 16.0423Z" fill="#D61321"/>
<path d="M36.5052 16.0423C33.9969 16.0423 31.9578 14.0032 31.9578 11.4949C31.9578 8.9866 33.9969 6.94751 36.5052 6.94751C39.0135 6.94751 41.0526 8.9866 41.0526 11.4949C41.0526 14.0032 39.0135 16.0423 36.5052 16.0423Z" fill="#D61321"/>
<path d="M23.9999 13.7681C20.8662 13.7681 18.3157 11.2176 18.3157 8.08388C18.3157 4.95015 20.8662 2.39966 23.9999 2.39966C27.1337 2.39966 29.6842 4.95015 29.6842 8.08388C29.6842 11.2176 27.1337 13.7681 23.9999 13.7681Z" fill="#D61321"/>
<path d="M25.1998 16.251V24.676C25.1998 25.3505 24.664 25.8974 24.0006 25.8974C23.3371 25.8974 22.8013 25.3518 22.8013 24.676V16.251C18.7448 16.8497 15.6072 20.3814 15.6072 24.676V32.0034C15.6072 32.6779 16.1429 33.2248 16.8064 33.2248H19.4926L20.4078 44.4805C20.4599 45.112 20.9795 45.5996 21.6021 45.5996H26.3978C27.0203 45.5996 27.54 45.1133 27.592 44.4805L28.5073 33.2248H31.1935C31.8557 33.2248 32.3927 32.6791 32.3927 32.0034V24.676C32.3927 20.3814 29.2551 16.8497 25.1985 16.251H25.1998Z" fill="#D61321"/>
<path d="M13.1294 32.1655V24.8381C13.1294 23.0078 13.6131 21.3064 14.3931 19.7869C13.3167 19.1326 12.074 18.7322 10.7309 18.7322C6.76369 18.7322 3.5368 22.0188 3.5368 26.0595V32.1655C3.5368 32.84 4.07255 33.3869 4.73603 33.3869H6.04812L7.13946 44.4986C7.20022 45.1226 7.71613 45.5975 8.33249 45.5975H13.1282C13.7445 45.5975 14.2604 45.1213 14.3212 44.4986L15.2079 35.4748C13.9839 34.89 13.1282 33.632 13.1282 32.1655H13.1294Z" fill="#D61321"/>
<path d="M44.4632 26.0595C44.4632 22.0188 41.2363 18.7322 37.269 18.7322C35.9272 18.7322 34.6833 19.1326 33.6068 19.7869C34.3869 21.3064 34.8706 23.0078 34.8706 24.8381V32.1655C34.8706 33.632 34.0149 34.89 32.7908 35.4748L33.6775 44.4986C33.7383 45.1226 34.2542 45.5975 34.8706 45.5975H39.6662C40.2826 45.5975 40.7985 45.1213 40.8593 44.4986L41.9506 33.3869H43.2627C43.9249 33.3869 44.4619 32.8412 44.4619 32.1655V26.0595H44.4632Z" fill="#D61321"/>
</g>
</svg>
