<svg width="48" height="48" viewBox="0 0 48 48" fill="none" xmlns="http://www.w3.org/2000/svg">
<mask id="mask0_57_43" style="mask-type:alpha" maskUnits="userSpaceOnUse" x="0" y="0" width="48" height="48">
<rect x="0.5" y="0.5" width="47" height="47" fill="#D9D9D9" stroke="#D61321"/>
</mask>
<g mask="url(#mask0_57_43)">
<path d="M24.7721 12.5737C28.7493 12.4763 32.1729 11.6473 34.5552 10.8665C34.2431 10.2153 33.9282 9.61621 33.6236 9.07412C32.4191 6.93045 31.2043 5.35632 30.4257 4.43888C28.6368 3.8515 26.7401 3.50291 24.7721 3.43018V12.5737Z" fill="#D61321"/>
<path d="M37.6324 24.5552H24.7721V33.5175C29.108 33.6191 32.8142 34.5523 35.3255 35.3998C36.5088 32.5047 37.5123 28.8302 37.6324 24.5552Z" fill="#D61321"/>
<path d="M23.263 33.5169V24.5552H10.4027C10.5228 28.8247 11.5243 32.4958 12.7055 35.3895C15.2229 34.5427 18.9305 33.6136 23.263 33.5169Z" fill="#D61321"/>
<path d="M23.263 23.0456V14.0839C19.0128 13.9892 15.3649 13.0937 12.8509 12.26C11.645 15.1166 10.5941 18.7734 10.4171 23.0456H23.2623H23.263Z" fill="#D61321"/>
<path d="M24.772 14.083V23.0454H37.6172C37.4409 18.7684 36.3872 15.1075 35.1793 12.2495C32.6714 13.0839 29.0249 13.9835 24.772 14.083Z" fill="#D61321"/>
<path d="M34.7184 36.7886C32.3299 35.9926 28.8405 35.1273 24.7721 35.0278V44.5707C26.7401 44.498 28.6368 44.1494 30.4257 43.5613C31.2043 42.6446 32.4191 41.0698 33.6237 38.9261C33.9817 38.2893 34.3528 37.5743 34.7184 36.7879V36.7886Z" fill="#D61321"/>
<path d="M23.2629 35.0264C19.1966 35.1211 15.7064 35.9822 13.3118 36.7782C13.6788 37.568 14.0519 38.2865 14.4114 38.926C15.6227 41.082 16.8444 42.6623 17.623 43.577C19.4085 44.1589 21.3011 44.5027 23.2636 44.572V35.0271L23.2629 35.0264Z" fill="#D61321"/>
<path d="M13.4751 10.8767C15.8636 11.6569 19.2879 12.4817 23.263 12.5743V3.42871C21.3005 3.49802 19.4079 3.8418 17.6224 4.42369C16.8445 5.33839 15.6228 6.91869 14.4108 9.07471C14.1048 9.61955 13.7886 10.222 13.4744 10.8767H13.4751Z" fill="#D61321"/>
<path d="M13.1246 39.7173C12.6767 38.9241 12.2631 38.1137 11.8823 37.2896C10.7841 37.7109 9.91023 38.113 9.30728 38.4122C10.9056 40.0426 12.7727 41.4081 14.8374 42.4367C14.2962 41.6647 13.7111 40.7569 13.1246 39.7173Z" fill="#D61321"/>
<path d="M36.6068 11.7406C37.0767 12.857 37.4848 13.9961 37.8271 15.1509C38.5885 17.7194 39.0241 20.3694 39.1283 23.0456H44.5556C44.3361 18.2402 42.4703 13.8643 39.5084 10.4697C38.8567 10.7984 37.873 11.2575 36.6061 11.7406H36.6068Z" fill="#D61321"/>
<path d="M36.1472 37.3008C35.7686 38.1208 35.3563 38.9277 34.9104 39.7169C34.3308 40.7441 33.7519 41.6437 33.2161 42.4095C35.2596 41.3836 37.1075 40.0284 38.6921 38.4117C38.0939 38.1153 37.231 37.7173 36.1465 37.3008H36.1472Z" fill="#D61321"/>
<path d="M44.5715 24.5552H39.1415C39.0667 27.3672 38.6263 30.1531 37.8272 32.8492C37.5199 33.8854 37.1604 34.9085 36.7502 35.9151C38.1105 36.4407 39.1305 36.9327 39.7465 37.2525C42.6508 33.803 44.4439 29.3867 44.5715 24.5552Z" fill="#D61321"/>
<path d="M12.0407 10.3714C12.3768 9.66393 12.7383 8.96675 13.1245 8.28262C13.711 7.24303 14.2961 6.3352 14.8373 5.56323C12.8872 6.53488 11.1133 7.80709 9.57538 9.31946C10.1907 9.61589 11.0241 9.98781 12.0407 10.3714Z" fill="#D61321"/>
<path d="M33.2161 5.59077C33.7519 6.35657 34.3308 7.25617 34.9104 8.2834C35.2946 8.9641 35.654 9.65716 35.9887 10.3605C36.9923 9.98035 37.8148 9.61324 38.4246 9.31955C36.9011 7.82159 35.1457 6.55899 33.2161 5.59009V5.59077Z" fill="#D61321"/>
<path d="M11.28 35.9035C10.8719 34.901 10.5131 33.8813 10.2072 32.8499C9.40804 30.1539 8.96766 27.3672 8.89289 24.5559H3.42859C3.55618 29.3881 5.34926 33.8037 8.25358 37.2532C8.87437 36.9307 9.90467 36.4339 11.28 35.9042V35.9035Z" fill="#D61321"/>
<path d="M8.9066 23.0456C9.01086 20.3694 9.44644 17.7194 10.2078 15.1509C10.5488 14.0002 10.9555 12.8652 11.4234 11.7522C10.1413 11.265 9.14736 10.8012 8.49091 10.4697C5.52896 13.8643 3.66317 18.2402 3.44366 23.0456H8.9066Z" fill="#D61321"/>
</g>
</svg>
