<?xml version="1.0" encoding="UTF-8"?>
<svg id="JAPAN REBORN" data-name="JAPAN REBORN" xmlns="http://www.w3.org/2000/svg" version="1.1" viewBox="0 0 226.8 104.1">
  <!-- Generator: Adobe Illustrator 29.7.1, SVG Export Plug-In . SVG Version: 2.1.1 Build 8)  -->
  <defs>
    <style>
      .st0 {
        fill: #ffffff;
      }
    </style>
  </defs>
  <g>
    <path class="st0" d="M6.9,39.6c-2.2-1.1-3.9-2.7-5.1-4.7-1.2-2-1.8-4.3-1.8-7v-3.7c0-.2,0-.4.2-.5s.3-.2.5-.2h6.8c.2,0,.4,0,.5.2.1.1.2.3.2.5v3.7c0,1.9.6,3.4,1.7,4.5s2.7,1.7,4.7,1.7,3.5-.6,4.7-1.7,1.8-2.7,1.8-4.5V.7c0-.2,0-.4.2-.5.1-.1.3-.2.5-.2h6.8c.2,0,.4,0,.5.2.1.1.2.3.2.5v27.3c0,2.6-.6,5-1.9,7s-3,3.6-5.2,4.7-4.8,1.7-7.6,1.7-5.5-.6-7.7-1.7Z"/>
    <path class="st0" d="M63.6,40.2l-1.7-5.7c0-.2-.2-.2-.3-.2h-14.3c-.1,0-.2,0-.3.2l-1.7,5.7c-.1.4-.4.6-.8.6h-7.4c-.2,0-.4,0-.5-.2-.1-.1-.1-.3,0-.6L49.1.6c.1-.4.4-.6.8-.6h9.1c.4,0,.6.2.8.6l12.6,39.4c0,0,0,.2,0,.3,0,.3-.2.5-.6.5h-7.4c-.4,0-.6-.2-.8-.6ZM49.3,27.9h10.3c.2,0,.3-.1.2-.4l-5.2-17.3c0-.2,0-.2-.2-.2,0,0-.1,0-.2.2l-5.1,17.3c0,.2,0,.4.2.4Z"/>
    <path class="st0" d="M104.4,1.5c1.9,1,3.4,2.5,4.5,4.5,1.1,1.9,1.6,4.1,1.6,6.6s-.6,4.6-1.7,6.5c-1.1,1.9-2.7,3.3-4.7,4.3s-4.3,1.5-6.9,1.5h-8.3c-.2,0-.3,0-.3.3v14.9c0,.2,0,.4-.2.5-.1.1-.3.2-.5.2h-6.8c-.2,0-.4,0-.5-.2-.1-.1-.2-.3-.2-.5V.6c0-.2,0-.4.2-.5.1-.1.3-.2.5-.2h16.4c2.6,0,4.8.5,6.8,1.6ZM100.7,16.8c1.1-1,1.6-2.4,1.6-4.1s-.5-3.1-1.6-4.1-2.5-1.6-4.3-1.6h-7.4c-.2,0-.3,0-.3.3v10.7c0,.2,0,.3.3.3h7.4c1.8,0,3.2-.5,4.3-1.5Z"/>
    <path class="st0" d="M140.5,40.2l-1.7-5.7c0-.2-.2-.2-.3-.2h-14.3c-.1,0-.2,0-.3.2l-1.7,5.7c-.1.4-.4.6-.8.6h-7.4c-.2,0-.4,0-.5-.2-.1-.1-.1-.3,0-.6L126,.6c.1-.4.4-.6.8-.6h9.1c.4,0,.6.2.8.6l12.6,39.4c0,0,0,.2,0,.3,0,.3-.2.5-.6.5h-7.4c-.4,0-.6-.2-.8-.6ZM126.1,27.9h10.3c.2,0,.3-.1.2-.4l-5.2-17.3c0-.2,0-.2-.2-.2,0,0-.1,0-.2.2l-5.1,17.3c0,.2,0,.4.2.4Z"/>
    <path class="st0" d="M181.2.2c.1-.1.3-.2.5-.2h6.8c.2,0,.4,0,.5.2.1.1.2.3.2.5v39.4c0,.2,0,.4-.2.5s-.3.2-.5.2h-6.6c-.4,0-.7-.2-.8-.5l-15.1-24.9c0-.1-.2-.2-.2-.1,0,0-.1.1-.1.3v24.6c.1.2,0,.4,0,.5-.1.1-.3.2-.5.2h-6.8c-.2,0-.4,0-.5-.2-.1-.1-.2-.3-.2-.5V.7c0-.2,0-.4.2-.5s.3-.2.5-.2h6.6c.4,0,.7.2.8.5l15,24.8c0,.1.2.2.2.1,0,0,.1-.1.1-.3V.7c0-.2,0-.4.1-.5Z"/>
  </g>
  <g>
    <path class="st0" d="M21.6,103.6l-7.3-16.1c0-.2-.2-.2-.3-.2h-5.4c-.2,0-.3,0-.3.3v15.9c0,.2,0,.4-.2.5-.1.1-.3.2-.5.2H.7c-.2,0-.4,0-.5-.2-.1-.1-.2-.3-.2-.5v-39.4c0-.2,0-.4.2-.5s.3-.2.5-.2h16.7c2.5,0,4.7.5,6.6,1.5,1.9,1,3.3,2.4,4.4,4.3,1,1.9,1.5,4,1.5,6.5s-.7,4.9-2,6.8c-1.3,1.9-3.2,3.2-5.5,4-.2,0-.3.2-.2.4l7.9,16.5c0,.2.1.3.1.3,0,.3-.2.5-.6.5h-7.2c-.4,0-.7-.2-.8-.5ZM8.2,70.7v10c0,.2,0,.3.3.3h7.6c1.6,0,3-.5,4-1.5,1-1,1.5-2.2,1.5-3.8s-.5-2.8-1.5-3.8-2.4-1.5-4-1.5h-7.6c-.2,0-.3,0-.3.3Z"/>
    <path class="st0" d="M67.1,70.2c-.1.1-.3.2-.5.2h-19.1c-.2,0-.3,0-.3.3v9c0,.2,0,.3.3.3h12.5c.2,0,.4,0,.5.2s.2.3.2.5v5.7c0,.2,0,.4-.2.5s-.3.2-.5.2h-12.5c-.2,0-.3,0-.3.3v9.4c0,.2,0,.3.3.3h19.1c.2,0,.4,0,.5.2.1.1.2.3.2.5v5.7c0,.2,0,.4-.2.5s-.3.2-.5.2h-26.9c-.2,0-.4,0-.5-.2-.1-.1-.2-.3-.2-.5v-39.4c0-.2,0-.4.2-.5s.3-.2.5-.2h26.9c.2,0,.4,0,.5.2.1.1.2.3.2.5v5.7c0,.2,0,.4-.2.5Z"/>
    <path class="st0" d="M101.6,83.2c3.7,1.9,5.5,5.1,5.5,9.5s-1.3,6.6-3.8,8.5-5.9,2.9-10.1,2.9h-15.1c-.2,0-.4,0-.5-.2-.1-.1-.2-.3-.2-.5v-39.4c0-.2,0-.4.2-.5s.3-.2.5-.2h14.6c9.2,0,13.8,3.7,13.8,11.2s-1.7,6.7-5,8.3c-.2.1-.2.2,0,.3ZM85.6,70.7v9.1c0,.2,0,.3.3.3h6.8c1.8,0,3.2-.4,4.3-1.3,1-.9,1.5-2,1.5-3.5s-.5-2.7-1.5-3.6c-1-.9-2.4-1.3-4.3-1.3h-6.8c-.2,0-.3,0-.3.3ZM97.4,95.7c1-.9,1.5-2.2,1.5-3.8s-.5-2.8-1.5-3.8c-1-.9-2.4-1.4-4.3-1.4h-7.2c-.2,0-.3,0-.3.3v9.7c0,.2,0,.3.3.3h7.3c1.8,0,3.2-.5,4.2-1.4Z"/>
    <path class="st0" d="M123.3,102.9c-2.3-1.2-4.1-3-5.4-5.2-1.3-2.2-1.9-4.8-1.9-7.7v-12.5c0-2.9.6-5.4,1.9-7.6s3.1-3.9,5.4-5.2,5-1.8,8-1.8,5.8.6,8.1,1.8,4.1,2.9,5.4,5.2c1.3,2.2,1.9,4.8,1.9,7.6v12.5c0,2.9-.6,5.5-1.9,7.8-1.3,2.3-3.1,4-5.4,5.2s-5,1.8-8.1,1.8-5.7-.6-8-1.9ZM136.5,95.7c1.3-1.4,2-3.2,2-5.4v-12.8c0-2.3-.6-4.1-2-5.4-1.3-1.4-3-2.1-5.2-2.1s-3.9.7-5.2,2.1c-1.3,1.4-2,3.2-2,5.4v12.8c0,2.3.6,4.1,2,5.4,1.3,1.4,3,2,5.2,2s3.9-.7,5.2-2Z"/>
    <path class="st0" d="M177.7,103.6l-7.3-16.1c0-.2-.2-.2-.3-.2h-5.4c-.2,0-.3,0-.3.3v15.9c0,.2,0,.4-.2.5-.1.1-.3.2-.5.2h-6.8c-.2,0-.4,0-.5-.2-.1-.1-.2-.3-.2-.5v-39.4c0-.2,0-.4.2-.5s.3-.2.5-.2h16.7c2.5,0,4.7.5,6.6,1.5,1.9,1,3.3,2.4,4.4,4.3,1,1.9,1.5,4,1.5,6.5s-.7,4.9-2,6.8c-1.3,1.9-3.2,3.2-5.5,4-.2,0-.3.2-.2.4l7.9,16.5c0,.2.1.3.1.3,0,.3-.2.5-.6.5h-7.2c-.4,0-.7-.2-.8-.5ZM164.4,70.7v10c0,.2,0,.3.3.3h7.6c1.6,0,3-.5,4-1.5,1-1,1.5-2.2,1.5-3.8s-.5-2.8-1.5-3.8-2.4-1.5-4-1.5h-7.6c-.2,0-.3,0-.3.3Z"/>
    <path class="st0" d="M218.8,63.5c.1-.1.3-.2.5-.2h6.8c.2,0,.4,0,.5.2.1.1.2.3.2.5v39.4c0,.2,0,.4-.2.5s-.3.2-.5.2h-6.6c-.4,0-.7-.2-.8-.5l-15.1-24.9c0-.1-.2-.2-.2-.1,0,0-.1.1-.1.3v24.6c.1.2,0,.4,0,.5-.1.1-.3.2-.5.2h-6.8c-.2,0-.4,0-.5-.2-.1-.1-.2-.3-.2-.5v-39.4c0-.2,0-.4.2-.5s.3-.2.5-.2h6.6c.4,0,.7.2.8.5l15,24.8c0,.1.2.2.2.1,0,0,.1-.1.1-.3v-24.5c0-.2,0-.4.1-.5Z"/>
  </g>
</svg>