<svg width="176" height="40" viewBox="0 0 176 40" fill="none" xmlns="http://www.w3.org/2000/svg">
<path d="M59.7893 11.0747L62.5129 1.06348L52.6489 5.00172L32.4056 7.21008L12.0151 5.00172L2.11426 1.06348L5.02193 11.0747L13.4505 12.1421V17.6262H5.02193V24.2145H13.4505V38.9369H20.0388V24.2145H23.2041V38.9369H39.0675V24.2145H45.2509V38.9369H51.8392V24.2145H59.6789V17.6262H51.8392V12.1053L59.7525 11.1115L59.7893 11.0747ZM23.2041 17.5894H20.0388V12.9518L23.2041 13.3567V17.6262V17.5894ZM33.289 33.1215H28.9827V24.2145H33.289V33.1215ZM45.2877 17.5894H28.9827V14.056L32.4056 14.4977L45.2877 12.8782V17.5894Z" fill="#B91B22"/>
<path d="M122.69 8.42465V17.7733H120.076V1.10035H122.579L125.928 10.449V1.10035H128.542V17.7733H126.112L122.726 8.42465H122.69ZM114.445 17.5892C114.924 17.3684 115.328 17.1108 115.697 16.7427C116.065 16.3747 116.359 15.9698 116.543 15.4913C116.727 15.0128 116.837 14.4976 116.837 13.9455V1.10035H114.224V13.7247C114.224 14.2767 114.077 14.6816 113.856 14.9024C113.599 15.1601 113.304 15.2705 112.899 15.2705C112.531 15.2705 112.2 15.1601 111.979 14.9024C111.722 14.6448 111.611 14.2767 111.611 13.7247V1.10035H108.998V13.9455C108.998 14.4976 109.108 15.0128 109.292 15.4913C109.513 15.9698 109.771 16.3747 110.139 16.7427C110.507 17.1108 110.912 17.4052 111.39 17.5892C111.869 17.8101 112.384 17.8837 112.899 17.8837C113.451 17.8837 113.967 17.7733 114.445 17.5892ZM99.2812 16.8531C98.8764 16.5219 98.5819 16.0802 98.3243 15.6017C98.0666 15.0865 97.9562 14.4608 97.9562 13.7615V5.11215C97.9562 4.44965 98.0666 3.82396 98.3243 3.30868C98.5451 2.7934 98.8764 2.35174 99.2812 1.98368C99.6493 1.65243 100.091 1.39479 100.569 1.21076C101.048 1.02674 101.526 0.953125 102.042 0.953125C102.52 0.953125 103.035 1.02674 103.514 1.21076C103.992 1.39479 104.434 1.65243 104.839 1.98368C105.207 2.35174 105.538 2.7566 105.759 3.30868C106.017 3.82396 106.127 4.44965 106.127 5.11215V13.7615C106.127 14.4608 106.017 15.0865 105.759 15.6017C105.538 16.117 105.207 16.5219 104.839 16.8531C104.434 17.1844 103.992 17.4788 103.514 17.626C103.035 17.8101 102.557 17.8837 102.042 17.8837C101.563 17.8837 101.048 17.8101 100.569 17.626C100.091 17.442 99.6493 17.1844 99.2812 16.8531ZM101.011 3.93438C100.753 4.15521 100.606 4.52326 100.569 5.07535V13.7247C100.569 14.2767 100.717 14.6448 101.011 14.8656C101.306 15.1233 101.637 15.2337 102.042 15.2337C102.447 15.2337 102.778 15.1233 103.072 14.8656C103.33 14.6448 103.477 14.2767 103.514 13.7247V5.07535C103.514 4.52326 103.367 4.15521 103.072 3.93438C102.778 3.67674 102.447 3.56632 102.042 3.56632C101.637 3.56632 101.306 3.67674 101.011 3.93438ZM90.5215 17.7733H87.1722V1.10035H90.7423C91.5153 1.10035 92.1778 1.21076 92.7298 1.4684C93.2819 1.68924 93.7236 2.02049 94.0916 2.42535C94.4597 2.83021 94.6805 3.27187 94.8278 3.78715H94.6805C94.6805 3.82396 94.8278 3.78715 94.8278 3.78715C94.975 4.30243 95.0486 4.81771 95.0486 5.36979V5.95868C95.0486 6.40035 95.0486 6.80521 94.9382 7.09965C94.8646 7.4309 94.7541 7.68854 94.6069 7.94618C94.3493 8.35104 94.018 8.68229 93.5764 8.97674C94.0548 9.23437 94.4229 9.60243 94.6437 10.0809C94.9014 10.633 95.0486 11.3323 95.0486 12.2156V13.1358C95.0486 14.608 94.6805 15.749 93.9812 16.5587C93.2451 17.3684 92.0673 17.7733 90.5215 17.7733ZM91.6993 10.3017C91.4785 10.2281 91.1472 10.1545 90.7055 10.1545H89.8222V15.1233H90.7055C91.184 15.1233 91.5153 15.0497 91.7729 14.9392C92.0305 14.8288 92.2146 14.6448 92.325 14.424C92.4354 14.2031 92.5458 13.9087 92.5458 13.6142C92.5458 13.283 92.5826 12.9149 92.5826 12.5101C92.5826 12.1052 92.5826 11.7372 92.509 11.4427C92.4722 11.1483 92.3618 10.9274 92.2514 10.7066C92.1041 10.5226 91.9201 10.3753 91.6993 10.3017ZM92.5826 5.66424C92.5826 4.92813 92.4354 4.41285 92.1778 4.0816C91.9201 3.75035 91.4416 3.56632 90.6687 3.56632H89.8222V7.79896H90.7423C91.1104 7.79896 91.4416 7.76215 91.6625 7.65174C91.9201 7.57813 92.0673 7.4309 92.1778 7.24687C92.4354 6.87882 92.5458 6.36354 92.5458 5.62743L92.5826 5.66424ZM81.541 17.7733H83.9701V1.10035H81.3569V10.449L78.0076 1.10035H75.5048V17.7733H78.118V8.42465L81.5041 17.7733H81.541ZM134.983 17.7733H131.56V1.10035H135.167C136.528 1.10035 137.596 1.4684 138.332 2.24132C139.068 3.01424 139.436 4.0816 139.399 5.48021V13.1358C139.399 14.6816 139.031 15.8594 138.258 16.6323C137.485 17.4052 136.381 17.7733 134.946 17.7733H134.983ZM136.823 5.48021C136.823 4.85451 136.712 4.37604 136.455 4.0816C136.344 3.93437 136.197 3.82396 135.976 3.71354C135.756 3.63993 135.498 3.60312 135.167 3.60312H134.21V15.3073H135.167C135.792 15.3073 136.234 15.1601 136.455 14.8656C136.712 14.5712 136.823 14.0927 136.823 13.3934V5.48021ZM72.1187 1.10035H69.5055V17.7733H72.1187V1.10035ZM79.0014 38.9365H86.2889V36.3233H81.6514V31.7962H85.7V29.2934H81.6514V24.7663H86.2889V22.2635H79.0014V38.9365ZM95.7111 23.2573C95.0118 22.5212 94.0548 22.1163 92.9139 22.1163C92.325 22.1163 91.8097 22.2267 91.2944 22.4108C90.816 22.5948 90.3743 22.8892 90.043 23.2205C89.675 23.5885 89.4173 23.9934 89.2333 24.4719C89.0493 24.9503 88.9389 25.4656 88.9389 26.0177V35.0351C88.9389 35.808 89.0493 36.4337 89.3069 36.949C89.5646 37.4642 89.859 37.8691 90.2639 38.1635C90.6319 38.4948 91.0736 38.7156 91.5521 38.826C92.0305 38.9365 92.4722 39.0101 92.9507 39.0101C93.5028 39.0101 93.9812 38.8997 94.4597 38.6788C94.9382 38.458 95.343 38.1635 95.6743 37.7955C96.0055 37.4274 96.3 37.0226 96.484 36.5441C96.668 36.0656 96.7784 35.5872 96.7784 35.0351V33.8941H94.1653V34.851C94.1653 35.1455 94.1285 35.4031 94.0548 35.5872C93.9812 35.7712 93.8708 35.9184 93.7604 36.0288C93.6132 36.1392 93.466 36.2128 93.3187 36.2497C93.1347 36.2865 92.9875 36.3233 92.8771 36.3233C92.6194 36.3233 92.3986 36.2865 92.2514 36.2128C92.1041 36.1392 91.9569 36.0288 91.8833 35.9184C91.6993 35.624 91.5889 35.2559 91.5889 34.7774V26.3858C91.5889 25.8337 91.6993 25.4288 91.8465 25.0976C91.9201 24.9503 92.0305 24.8399 92.2146 24.7663C92.3986 24.6927 92.6194 24.6559 92.8771 24.6559C93.2819 24.6559 93.5764 24.8031 93.834 25.0976C94.0916 25.4288 94.2021 25.7601 94.2021 26.2017V27.1219H96.8153V26.0545C96.8153 25.4656 96.7048 24.9135 96.5208 24.4351C96.3368 23.9198 96.0423 23.5149 95.7111 23.1469V23.2573ZM68.4014 22.4108V24.7663H71.125V38.9365H73.7382V24.7663H76.4618V22.2635H68.4014V22.4108ZM171.126 22.2635V22.374L169.322 28.5205L167.519 22.3003H164.722L167.997 31.9434V38.9733H170.61V31.9434L173.886 22.3003H171.089L171.126 22.2635ZM151.214 24.4719C151.472 24.9872 151.582 25.6128 151.582 26.2753V34.9247C151.582 35.624 151.472 36.2497 151.214 36.7649C150.993 37.2802 150.662 37.6851 150.294 38.0163C149.889 38.3476 149.447 38.642 148.969 38.7892C148.49 38.9733 148.012 39.0469 147.497 39.0469C147.018 39.0469 146.503 38.9733 146.024 38.7892C145.546 38.6052 145.104 38.3476 144.736 38.0163C144.331 37.6851 144.037 37.2434 143.779 36.7649C143.522 36.2497 143.411 35.624 143.411 34.9247V26.2753C143.411 25.6128 143.522 24.9872 143.779 24.4719C144 23.9566 144.331 23.5149 144.736 23.1469C145.104 22.8156 145.546 22.558 146.024 22.374C146.503 22.1899 146.981 22.1163 147.497 22.1163C147.975 22.1163 148.49 22.1899 148.969 22.374C149.447 22.558 149.889 22.8156 150.294 23.1469C150.662 23.5149 150.993 23.9198 151.214 24.4719ZM148.527 36.0656C148.785 35.8448 148.932 35.4767 148.969 34.9247V26.2753C148.969 25.7233 148.822 25.3552 148.527 25.1344C148.233 24.8767 147.901 24.7663 147.497 24.7663C147.092 24.7663 146.76 24.8767 146.466 25.1344C146.208 25.3552 146.061 25.7233 146.024 26.2753V34.9247C146.024 35.4767 146.172 35.8448 146.466 36.0656C146.76 36.3233 147.092 36.4337 147.497 36.4337C147.901 36.4337 148.233 36.3233 148.527 36.0656ZM130.824 24.4719C131.081 24.9872 131.192 25.6128 131.192 26.2753V34.9247C131.192 35.624 131.081 36.2497 130.824 36.7649C130.603 37.2802 130.272 37.6851 129.903 38.0163C129.499 38.3476 129.057 38.642 128.578 38.7892C128.1 38.9733 127.622 39.0469 127.106 39.0469C126.628 39.0469 126.112 38.9733 125.634 38.7892C125.156 38.6052 124.714 38.3476 124.346 38.0163C123.941 37.6851 123.647 37.2434 123.389 36.7649C123.131 36.2497 123.021 35.624 123.021 34.9247V26.2753C123.021 25.6128 123.131 24.9872 123.389 24.4719C123.61 23.9566 123.941 23.5149 124.346 23.1469C124.714 22.8156 125.156 22.558 125.634 22.374C126.112 22.1899 126.591 22.1163 127.106 22.1163C127.585 22.1163 128.1 22.1899 128.578 22.374C129.057 22.558 129.499 22.8156 129.903 23.1469C130.272 23.5149 130.603 23.9198 130.824 24.4719ZM128.137 36.0656C128.394 35.8448 128.542 35.4767 128.578 34.9247V26.2753C128.578 25.7233 128.431 25.3552 128.137 25.1344C127.842 24.8767 127.511 24.7663 127.106 24.7663C126.701 24.7663 126.37 24.8767 126.076 25.1344C125.818 25.3552 125.671 25.7233 125.634 26.2753V34.9247C125.634 35.4767 125.781 35.8448 126.076 36.0656C126.37 36.3233 126.701 36.4337 127.106 36.4337C127.511 36.4337 127.842 36.3233 128.137 36.0656ZM136.86 22.2635H134.247V38.9365H141.534V36.3233H136.897V22.2635H136.86ZM105.428 29.2934H102.815V22.2635H100.201V38.9365H102.815V31.649H105.428V38.9365H108.041V22.2635H105.428V29.2934ZM161.409 23.1469C161.004 22.8156 160.562 22.558 160.084 22.374C159.606 22.1899 159.127 22.1163 158.612 22.1163C158.133 22.1163 157.618 22.1899 157.14 22.374C156.661 22.558 156.219 22.8156 155.851 23.1469C155.447 23.5149 155.115 23.9198 154.894 24.4719C154.637 24.9872 154.526 25.6128 154.526 26.2753V34.9247C154.526 35.624 154.637 36.2497 154.894 36.7649C155.115 37.2802 155.447 37.6851 155.851 38.0163C156.219 38.3476 156.661 38.642 157.14 38.7892C157.618 38.9733 158.097 39.0469 158.612 39.0469C159.09 39.0469 159.606 38.9733 160.084 38.7892C160.562 38.6052 161.004 38.3476 161.409 38.0163C161.777 37.6851 162.108 37.2434 162.329 36.7649C162.587 36.2497 162.697 35.624 162.697 34.9247V29.6247H158.207V31.9802H160.084V34.9247C160.084 35.4767 159.937 35.8448 159.642 36.0656C159.348 36.3233 159.017 36.4337 158.612 36.4337C158.207 36.4337 157.876 36.3233 157.581 36.0656C157.324 35.8448 157.176 35.4767 157.14 34.9247V26.2753C157.14 25.7233 157.287 25.3552 157.581 25.1344C157.876 24.8767 158.207 24.7663 158.612 24.7663C159.017 24.7663 159.348 24.8767 159.642 25.1344C159.9 25.3552 160.047 25.7233 160.084 26.2753V27.2323H162.697V26.2753C162.697 25.6128 162.587 24.9872 162.329 24.4719C162.108 23.9566 161.777 23.5149 161.409 23.1469ZM117.39 31.6122L114.04 22.2635H111.537V38.9365H114.151V29.5878L117.537 38.9365H119.966V22.2635H117.353V31.6122H117.39Z" fill="black"/>
</svg>
