<svg width="588" height="368" viewBox="0 0 588 368" fill="none" xmlns="http://www.w3.org/2000/svg">
<mask id="mask0_440_162" style="mask-type:alpha" maskUnits="userSpaceOnUse" x="0" y="0" width="588" height="368">
<rect width="588" height="368" fill="#D9D9D9"/>
</mask>
<g mask="url(#mask0_440_162)">
<path opacity="0.5" d="M264.49 319.433H304.533V217.477H264.49V319.433ZM419.905 115.413C380.476 120.038 336.736 123.479 293.981 123.479C284.336 123.479 274.654 123.299 264.971 122.977L264.454 122.96V162.028H420.464V115.348L419.905 115.413ZM202.209 119.003L201.754 118.962C191.526 118.03 181.514 116.991 171.721 115.879L171.165 115.816V162.028H202.209V119.003ZM108.92 107.377L108.497 107.311C84.2117 103.493 63.853 99.728 49.5664 96.9182C42.4232 95.5133 36.7978 94.3473 32.959 93.5325C31.0397 93.1251 29.5669 92.8048 28.5742 92.5872C28.0779 92.4783 27.7013 92.3952 27.4492 92.3391C27.4165 92.3318 27.3859 92.325 27.3574 92.3186L0.746094 -0.0407715L101.254 34.5422L101.281 34.551L101.31 34.5579L101.417 34.0696C101.315 34.5336 101.31 34.5566 101.311 34.5579C101.311 34.558 101.313 34.5585 101.314 34.5588C101.317 34.5595 101.322 34.5605 101.328 34.5618C101.34 34.5643 101.358 34.5685 101.381 34.5735C101.428 34.5837 101.498 34.5985 101.59 34.6184C101.775 34.6584 102.052 34.7178 102.416 34.7952C103.145 34.9498 104.225 35.1766 105.635 35.4651C108.454 36.0422 112.588 36.8667 117.85 37.8557C128.373 39.8337 143.409 42.4706 161.46 45.1077C197.559 50.3815 245.726 55.6565 293.981 55.6565C342.237 55.6565 390.405 50.3815 426.504 45.1077C444.554 42.4706 459.59 39.8337 470.113 37.8557C475.375 36.8667 479.51 36.0422 482.329 35.4651C483.738 35.1766 484.819 34.9498 485.548 34.7952C485.912 34.7178 486.189 34.6584 486.374 34.6184C486.466 34.5985 486.536 34.5837 486.583 34.5735C486.606 34.5684 486.624 34.5644 486.636 34.5618C486.642 34.5605 486.646 34.5595 486.649 34.5588C486.651 34.5586 486.652 34.558 486.652 34.5579C486.653 34.5577 486.654 34.5576 486.547 34.0696L486.654 34.5579L486.683 34.551L486.71 34.5422L587.253 -0.0407715L560.642 92.3176C560.619 92.3226 560.595 92.3286 560.57 92.3342C560.331 92.3874 559.973 92.4663 559.501 92.5696C558.558 92.776 557.158 93.0799 555.333 93.467C551.682 94.2415 546.327 95.3515 539.518 96.6936C525.897 99.3779 506.454 102.991 483.166 106.701L482.19 106.857L482.781 107.44V162.028H566.781V217.477H482.781V362.688H420.5V217.477H357.997V362.688H202.245V217.477H171.201V362.688H108.92V217.477H23.6865V162.028H108.92V107.377Z" stroke="#767995"/>
</g>
</svg>
