<svg width="1501" height="663" viewBox="0 0 1501 663" fill="none" xmlns="http://www.w3.org/2000/svg" class="svg-draw-animation">
<path class="draw-path" opacity="0.2" d="M23.5691 661.922L0.429122 628.932C-0.320878 627.872 -0.0608782 626.402 0.999122 625.662C79.0191 570.972 275.339 435.782 456.759 330.392C537.649 283.402 603.959 249.222 653.859 228.802C682.819 216.952 706.079 209.722 724.949 206.702C750.899 202.552 769.349 206.492 781.369 218.742C795.649 233.302 796.989 255.522 785.339 284.782C775.979 308.302 758.119 337.962 730.719 375.472C702.719 413.812 690.169 437.342 684.599 451.202C681.579 458.712 687.989 466.552 695.949 465.112C710.709 462.432 736.419 454.822 779.899 434.892C833.719 410.222 904.359 371.602 989.849 320.102C1184.29 202.952 1391.14 58.5425 1473.06 0.432472C1474.12 -0.317528 1475.58 -0.0675284 1476.33 0.992472L1499.66 33.8525C1500.41 34.9125 1500.17 36.3725 1499.11 37.1225C1413.67 97.7225 1198.15 248.122 998.979 367.092C910.149 420.152 837.559 459.042 783.199 482.702C739.049 501.922 706.729 511.362 683.329 511.362C667.319 511.362 655.489 506.942 646.879 498.222C632.959 484.112 631.589 462.672 642.829 434.502C651.689 412.282 668.549 384.292 694.379 348.922C731.349 298.302 743.939 269.462 746.989 257.412C748.169 252.762 744.329 249.822 739.539 250.162C727.659 251.022 703.749 256.072 658.149 275.792C609.109 297.002 544.879 330.842 467.229 376.352C290.249 480.102 101.709 609.992 26.8391 662.472C25.7791 663.212 24.3091 662.962 23.5691 661.892V661.922Z" fill="url(#paint0_linear_2060_9109)" stroke="url(#paint0_linear_2060_9109)" stroke-width="2" stroke-linecap="round" stroke-linejoin="round"/>
<defs>
<linearGradient id="paint0_linear_2060_9109" x1="1439.84" y1="76.4925" x2="96.1691" y2="597.173" gradientUnits="userSpaceOnUse">
<stop stop-color="#CE030C"/>
<stop offset="0.54" stop-color="#E08C90"/>
<stop offset="1" stop-color="#D21119"/>
</linearGradient>
</defs>
<style>
.svg-draw-animation .draw-path {
  stroke-dasharray: 3000;
  stroke-dashoffset: 3000;
  animation: draw 3s ease-in-out forwards;
}

@keyframes draw {
  to {
    stroke-dashoffset: 0;
  }
}
</style>
</svg>


