<svg width="532" height="320" viewBox="0 0 532 320" fill="none" xmlns="http://www.w3.org/2000/svg">
<path d="M264.49 305.401H304.533V202.489H264.49V305.401ZM419.905 99.458C380.476 104.127 336.736 107.601 293.981 107.601C284.336 107.601 274.654 107.419 264.971 107.094L264.454 107.076V146.505H420.464V99.3916L419.905 99.458ZM202.209 103.083L201.755 103.041C191.527 102.1 181.515 101.051 171.722 99.9287L171.165 99.8652V146.505H202.209V103.083ZM108.92 91.3457L108.498 91.2793C84.2126 87.4248 63.854 83.6245 49.5674 80.7881C42.4242 79.3699 36.7988 78.1927 32.96 77.3701C31.0407 76.9589 29.5679 76.6357 28.5752 76.416C28.0789 76.3062 27.7023 76.2227 27.4502 76.166C27.4174 76.1587 27.387 76.151 27.3584 76.1445L0.744141 -17.0986L101.253 17.8115L101.28 17.8213L101.309 17.8271L101.417 17.3389C101.318 17.7881 101.31 17.8241 101.31 17.8271C101.31 17.8273 101.312 17.8278 101.313 17.8281C101.316 17.8288 101.321 17.8298 101.327 17.8311C101.339 17.8337 101.357 17.8377 101.38 17.8428C101.427 17.8531 101.496 17.8685 101.589 17.8887C101.774 17.9291 102.051 17.9893 102.415 18.0674C103.144 18.2235 104.224 18.4519 105.634 18.7432C108.453 19.3258 112.588 20.1579 117.85 21.1562C128.373 23.153 143.409 25.8155 161.459 28.4775C197.558 33.8013 245.725 39.1269 293.981 39.127C342.238 39.127 390.406 33.8014 426.505 28.4775C444.555 25.8155 459.591 23.153 470.114 21.1562C475.376 20.1579 479.51 19.3257 482.329 18.7432C483.739 18.4519 484.82 18.2235 485.549 18.0674C485.913 17.9893 486.19 17.9291 486.375 17.8887C486.467 17.8685 486.537 17.8531 486.584 17.8428C486.607 17.8377 486.625 17.8337 486.637 17.8311C486.643 17.8298 486.647 17.8288 486.65 17.8281C486.652 17.8278 486.653 17.8273 486.653 17.8271C486.654 17.827 486.655 17.827 486.547 17.3389L486.655 17.8271L486.684 17.8213L486.711 17.8115L587.255 -17.0986L560.641 76.1445C560.618 76.1496 560.594 76.1555 560.569 76.1611C560.33 76.2148 559.972 76.2942 559.5 76.3984C558.557 76.6069 557.157 76.9138 555.332 77.3047C551.681 78.0865 546.326 79.2067 539.517 80.5615C525.897 83.2712 506.453 86.9182 483.165 90.6641L482.197 90.8193L482.781 91.4014V146.505H566.781V202.489H482.781V349.076H420.5V202.489H357.997V349.076H202.245V202.489H171.201V349.076H108.92V202.489H23.6865V146.505H108.92V91.3457Z" stroke="white" stroke-opacity="0.3"/>
</svg>
