<svg width="13" height="13" viewBox="0 0 13 13" fill="none" xmlns="http://www.w3.org/2000/svg">
<path fill-rule="evenodd" clip-rule="evenodd" d="M1.35355 0.646447C1.15829 0.451184 0.841709 0.451184 0.646447 0.646447C0.451184 0.841709 0.451184 1.15829 0.646447 1.35355L5.42877 6.13588L0.647208 10.9174C0.451945 11.1127 0.451945 11.4293 0.647207 11.6246C0.84247 11.8198 1.15905 11.8198 1.35431 11.6246L6.13588 6.84299L10.9174 11.6246C11.1127 11.8198 11.4293 11.8198 11.6246 11.6246C11.8198 11.4293 11.8198 11.1127 11.6246 10.9174L6.84299 6.13588L11.6253 1.35355C11.8206 1.15829 11.8206 0.841709 11.6253 0.646447C11.4301 0.451184 11.1135 0.451184 10.9182 0.646447L6.13588 5.42877L1.35355 0.646447Z" fill="black"/>
</svg>
