<svg width="104" height="104" viewBox="0 0 104 104" fill="none" xmlns="http://www.w3.org/2000/svg">
<mask id="mask0_1345_1604" style="mask-type:alpha" maskUnits="userSpaceOnUse" x="0" y="0" width="104" height="104">
<rect width="104" height="104" fill="#D9D9D9"/>
</mask>
<g mask="url(#mask0_1345_1604)">
<path d="M60.4148 75.3286C61.231 75.3286 61.8988 74.6608 61.8988 73.8446C61.8988 73.8446 61.8988 70.9138 63.9393 68.7063C65.9798 66.4989 68.9848 62.6128 68.9848 62.6128L68.7808 62.9003C71.4334 59.2274 72.871 54.6271 72.5278 49.6836C71.8229 39.7502 63.7167 31.6997 53.774 31.0783C42.0877 30.3455 32.377 39.6111 32.377 51.1398C32.377 55.5268 33.7867 59.5892 36.1704 62.9003L35.9663 62.6128C35.9663 62.6128 38.9806 66.5175 41.0118 68.7063C43.043 70.8952 43.0523 73.8446 43.0523 73.8446C43.0523 74.6608 43.7201 75.3286 44.5363 75.3286H60.4056H60.4148Z" fill="#B91B22"/>
<path d="M61.2402 78.7417H43.72C43.3583 78.7417 43.0615 79.0385 43.0615 79.4002V85.0764C43.0615 85.4382 43.3583 85.7349 43.72 85.7349H44.731C45.0371 85.7349 45.2782 85.9575 45.3431 86.2543C46.0109 89.1295 48.9418 91.2999 52.4755 91.2999C56.0092 91.2999 58.9493 89.1295 59.6079 86.2543C59.6728 85.9575 59.9232 85.7349 60.22 85.7349H61.231C61.5927 85.7349 61.8895 85.4382 61.8895 85.0764V79.4002C61.8895 79.0385 61.5927 78.7417 61.231 78.7417H61.2402Z" fill="#B91B22"/>
<path d="M55.0914 14.6062C55.0914 13.1668 53.9246 12 52.4852 12C51.0458 12 49.8789 13.1668 49.8789 14.6062V21.9705C49.8789 23.4099 51.0458 24.5767 52.4852 24.5767C53.9246 24.5767 55.0914 23.4099 55.0914 21.9705V14.6062Z" fill="#B91B22"/>
<path d="M77.0304 24.618C78.0482 23.6002 78.0482 21.95 77.0304 20.9322C76.0126 19.9144 74.3624 19.9144 73.3446 20.9322L68.1373 26.1395C67.1195 27.1573 67.1195 28.8075 68.1373 29.8253C69.1551 30.8431 70.8053 30.8431 71.8231 29.8253L77.0304 24.618Z" fill="#B91B22"/>
<path d="M33.1364 29.8185C34.1542 30.8363 35.8044 30.8363 36.8222 29.8185C37.84 28.8007 37.84 27.1505 36.8222 26.1327L31.6149 20.9254C30.5971 19.9076 28.9469 19.9076 27.9291 20.9254C26.9113 21.9432 26.9113 23.5934 27.9291 24.6112L33.1364 29.8185Z" fill="#B91B22"/>
<path d="M52.9582 42.0505L55.3418 47.7267C55.416 47.9029 55.583 48.0235 55.7778 48.042L61.9177 48.5614C62.3815 48.5985 62.5669 49.1735 62.2145 49.4703L57.5493 53.4956C57.4009 53.6255 57.3359 53.8203 57.3823 54.0058L58.7921 60.0066C58.8941 60.4518 58.4118 60.8135 58.013 60.5723L52.7449 57.3818C52.5779 57.2798 52.3739 57.2798 52.2069 57.3818L46.9388 60.5723C46.5493 60.8135 46.0577 60.4611 46.1597 60.0066L47.5695 54.0058C47.6159 53.8203 47.551 53.6162 47.4026 53.4956L42.7373 49.4703C42.3849 49.1735 42.5704 48.5985 43.0341 48.5614L49.1741 48.042C49.3688 48.0235 49.5358 47.9029 49.61 47.7267L51.9936 42.0505C52.1699 41.6238 52.7727 41.6238 52.9489 42.0505H52.9582Z" fill="white"/>
<path d="M100.22 60.1434L91.7971 51.7201C91.6846 51.6076 91.557 51.5025 91.422 51.42C91.362 51.3825 91.2945 51.3525 91.2345 51.315C91.152 51.27 91.077 51.225 90.9945 51.1875C90.9195 51.1575 90.837 51.135 90.7545 51.1125C90.6795 51.09 90.612 51.06 90.537 51.045C90.3869 51.015 90.2369 51 90.0869 51C90.0719 51 90.0644 51 90.0494 51C90.0344 51 90.0269 51 90.0119 51C89.8619 51 89.7118 51.015 89.5618 51.045C89.4868 51.06 89.4118 51.09 89.3443 51.1125C89.2618 51.135 89.1793 51.1575 89.1043 51.1875C89.0218 51.225 88.9468 51.27 88.8643 51.315C88.8043 51.3525 88.7367 51.375 88.6767 51.42C88.5417 51.51 88.4217 51.6076 88.3017 51.7201L79.8859 60.1359C78.9183 61.1035 78.9183 62.6786 79.8859 63.6462C80.8535 64.6138 82.4286 64.6138 83.3962 63.6462L87.5817 59.4608V81.5505H72.0551L70.0449 86.516H90.0644C91.437 86.516 92.5471 85.4059 92.5471 84.0333V59.4608L96.7325 63.6462C97.2201 64.1338 97.8502 64.3738 98.4877 64.3738C99.1253 64.3738 99.7553 64.1338 100.243 63.6462C101.21 62.6786 101.21 61.1035 100.243 60.1359L100.22 60.1434Z" fill="#767995"/>
<path d="M4.7482 60.1434L13.1715 51.7201C13.284 51.6076 13.4116 51.5025 13.5466 51.42C13.6066 51.3825 13.6741 51.3525 13.7341 51.315C13.8166 51.27 13.8916 51.225 13.9741 51.1875C14.0491 51.1575 14.1316 51.135 14.2141 51.1125C14.2891 51.09 14.3566 51.06 14.4317 51.045C14.5817 51.015 14.7317 51 14.8817 51C14.8967 51 14.9042 51 14.9192 51C14.9342 51 14.9417 51 14.9567 51C15.1067 51 15.2567 51.015 15.4067 51.045C15.4817 51.06 15.5568 51.09 15.6243 51.1125C15.7068 51.135 15.7893 51.1575 15.8643 51.1875C15.9468 51.225 16.0218 51.27 16.1043 51.315C16.1643 51.3525 16.2318 51.375 16.2918 51.42C16.4269 51.51 16.5469 51.6076 16.6669 51.7201L25.0827 60.1359C26.0503 61.1035 26.0503 62.6786 25.0827 63.6462C24.1151 64.6138 22.5399 64.6138 21.5724 63.6462L17.3869 59.4608V81.5505H32.9135L34.9237 86.516H14.9042C13.5316 86.516 12.4215 85.4059 12.4215 84.0333V59.4608L8.23604 63.6462C7.74849 64.1338 7.11843 64.3738 6.48087 64.3738C5.8433 64.3738 5.21324 64.1338 4.7257 63.6462C3.7581 62.6786 3.7581 61.1035 4.7257 60.1359L4.7482 60.1434Z" fill="#767995"/>
</g>
</svg>
