<svg width="104" height="104" viewBox="0 0 104 104" fill="none" xmlns="http://www.w3.org/2000/svg">
<mask id="mask0_1345_1607" style="mask-type:alpha" maskUnits="userSpaceOnUse" x="0" y="0" width="104" height="104">
<rect width="104" height="104" fill="#D9D9D9"/>
</mask>
<g mask="url(#mask0_1345_1607)">
<path fill-rule="evenodd" clip-rule="evenodd" d="M53.6855 26.0917C53.8008 24.9226 54.0231 23.8605 54.583 23.0948C55.8838 21.3164 57.8269 20.4849 59.4571 19.0852C61.0132 17.7432 62.6516 16.1294 62.9316 13.6265C63.7714 6.13417 57.6622 2.58561 50.5157 3.03845C44.1514 3.43364 40.6769 6.88341 40.1006 13.1243C40.0512 13.643 40.4793 14.0876 40.998 14.0876H45.9709C46.3908 14.0876 46.7778 13.7912 46.8437 13.3795C47.1483 11.3706 48.4409 9.9215 50.6475 9.68273C53.068 9.4275 55.3651 10.0038 56.0567 11.6587C56.806 13.4454 55.1181 15.5202 54.3195 16.3929C52.8375 18.0066 50.4252 19.184 49.1819 20.9295C48.1281 22.4032 47.6917 24.9967 47.6917 27.8207" fill="#767995"/>
<path d="M50.6724 37.4702C52.7459 37.4702 54.4268 35.8151 54.4268 33.7734C54.4268 31.7318 52.7459 30.0767 50.6724 30.0767C48.5989 30.0767 46.918 31.7318 46.918 33.7734C46.918 35.8151 48.5989 37.4702 50.6724 37.4702Z" fill="#767995"/>
<path d="M51.5536 72.6346C58.5699 72.6346 64.2576 66.9468 64.2576 59.9306C64.2576 52.9143 58.5699 47.2266 51.5536 47.2266C44.5374 47.2266 38.8496 52.9143 38.8496 59.9306C38.8496 66.9468 44.5374 72.6346 51.5536 72.6346Z" fill="#B91B22"/>
<path d="M70.2098 96.9229L69.403 86.7301C68.5385 78.6861 66.3237 76.2491 61.4578 74.5859C60.6592 74.3142 59.4077 73.7544 58.7326 74.2648C57.3659 75.2858 55.3981 76.4631 51.5614 76.4631C47.7246 76.4631 45.7486 75.2858 44.3901 74.2648C43.715 73.7544 42.4635 74.3142 41.6649 74.5859C36.7908 76.2408 34.5843 78.6779 33.7198 86.7301L32.9129 96.9229C32.8306 98.1415 33.2093 99.9199 34.7819 100.249C37.5977 100.842 43.254 101.797 51.5696 101.797C59.8853 101.797 65.5415 100.842 68.3573 100.249C69.9299 99.9199 70.3086 98.1415 70.2263 96.9229H70.2098Z" fill="#B91B22"/>
<path d="M86.5862 63.6275C90.1876 63.6275 93.107 60.7081 93.107 57.1067C93.107 53.5054 90.1876 50.5859 86.5862 50.5859C82.9849 50.5859 80.0654 53.5054 80.0654 57.1067C80.0654 60.7081 82.9849 63.6275 86.5862 63.6275Z" fill="#B91B22"/>
<path d="M84.1992 58.8273C85.1495 58.8273 85.9199 58.0569 85.9199 57.1065C85.9199 56.1562 85.1495 55.3857 84.1992 55.3857H73.2406C72.2903 55.3857 71.5198 56.1562 71.5198 57.1065C71.5198 58.0569 72.2903 58.8273 73.2406 58.8273H84.1992Z" fill="#B91B22"/>
<path d="M82.8383 36.8629C85.671 34.0302 85.671 29.4375 82.8383 26.6048C80.0056 23.7722 75.4129 23.7722 72.5802 26.6049C69.7475 29.4375 69.7475 34.0302 72.5802 36.8629C75.4129 39.6956 80.0056 39.6956 82.8383 36.8629Z" fill="#B91B22"/>
<path d="M77.1837 34.9635C77.9328 34.2144 77.9341 33.001 77.1866 32.2535C76.439 31.5059 75.2257 31.5072 74.4765 32.2564L65.866 40.8669C65.1169 41.6161 65.1155 42.8294 65.8631 43.577C66.6107 44.3245 67.824 44.3232 68.5732 43.574L77.1837 34.9635Z" fill="#B91B22"/>
<path d="M16.5208 63.6275C20.1221 63.6275 23.0416 60.7081 23.0416 57.1067C23.0416 53.5054 20.1221 50.5859 16.5208 50.5859C12.9195 50.5859 10 53.5054 10 57.1067C10 60.7081 12.9195 63.6275 16.5208 63.6275Z" fill="#B91B22"/>
<path d="M29.8583 58.8273C30.8087 58.8273 31.5791 58.0569 31.5791 57.1065C31.5791 56.1562 30.8087 55.3857 29.8583 55.3857H18.8998C17.9494 55.3857 17.179 56.1562 17.179 57.1065C17.179 58.0569 17.9494 58.8273 18.8998 58.8273H29.8583Z" fill="#B91B22"/>
<path d="M30.5238 36.8707C33.3565 34.038 33.3565 29.4454 30.5238 26.6127C27.6911 23.78 23.0984 23.78 20.2658 26.6127C17.4331 29.4454 17.4331 34.038 20.2658 36.8707C23.0984 39.7034 27.6911 39.7034 30.5238 36.8707Z" fill="#B91B22"/>
<path d="M34.5321 43.586C35.2812 44.3352 36.4946 44.3365 37.2421 43.5889C37.9897 42.8414 37.9884 41.628 37.2392 40.8789L28.6287 32.2684C27.8795 31.5192 26.6662 31.5179 25.9187 32.2655C25.1711 33.013 25.1724 34.2264 25.9216 34.9755L34.5321 43.586Z" fill="#B91B22"/>
</g>
</svg>
