<svg width="104" height="104" viewBox="0 0 104 104" fill="none" xmlns="http://www.w3.org/2000/svg">
<mask id="mask0_1345_1603" style="mask-type:alpha" maskUnits="userSpaceOnUse" x="0" y="0" width="104" height="104">
<rect width="104" height="104" fill="#D9D9D9"/>
</mask>
<g mask="url(#mask0_1345_1603)">
<path d="M95.6326 30.334C95.5069 30.334 95.3813 30.3759 95.2724 30.4513L91.2509 33.4757C90.9828 33.6768 90.9325 34.0538 91.1336 34.3135L97.4339 42.6999C97.5512 42.8591 97.7355 42.9429 97.9114 42.9429C98.0371 42.9429 98.1628 42.901 98.2717 42.8256L102.293 39.8011C102.561 39.6001 102.611 39.2231 102.41 38.9633L96.1102 30.577C95.9929 30.4178 95.8086 30.334 95.6326 30.334Z" fill="#B91B22"/>
<path d="M92.024 58.6438C92.024 45.0178 80.9759 33.9768 67.357 33.9768C62.7225 33.9768 58.4019 35.2479 54.704 37.4638C53.0617 38.4478 50.9324 37.9136 49.9483 36.2713C48.9644 34.629 49.4977 32.4996 51.14 31.5156C55.8869 28.6712 61.4354 27.0435 67.357 27.0435C84.8037 27.0435 98.9573 41.1873 98.9573 58.6438C98.9571 76.0994 84.8127 90.2433 67.357 90.2433C60.8225 90.2432 54.7381 88.2574 49.6919 84.8494C48.1052 83.7779 47.6876 81.6229 48.7592 80.0362C49.8307 78.4497 51.9849 78.0322 53.5716 79.1035C57.5063 81.761 62.2464 83.3099 67.357 83.3099C80.9835 83.3099 92.0238 72.2703 92.024 58.6438Z" fill="#B91B22"/>
<path d="M77.2012 13H57.5213C57.1275 13 56.8008 13.3184 56.8008 13.7205V20.5821C56.8008 20.9759 57.1191 21.3026 57.5213 21.3026H60.3363C60.7301 21.3026 61.0568 21.621 61.0568 22.0231V24.1595C61.0568 24.5533 61.3752 24.88 61.7773 24.88H72.9536C73.3473 24.88 73.6741 24.5617 73.6741 24.1595V22.0231C73.6741 21.6294 73.9925 21.3026 74.3946 21.3026H77.2096C77.6034 21.3026 77.9301 20.9842 77.9301 20.5821V13.7205C77.9301 13.3267 77.6118 13 77.2096 13H77.2012Z" fill="#B91B22"/>
<path d="M67.3489 53.583C66.4022 53.583 65.4471 53.8595 64.6009 54.4292C62.3473 55.954 61.7524 59.012 63.2688 61.2656C64.2239 62.6731 65.7739 63.4356 67.3573 63.4356C68.304 63.4356 69.2591 63.1591 70.1053 62.5894C72.359 61.0646 72.9538 58.0066 71.4374 55.7529C70.4823 54.3454 68.9324 53.583 67.3489 53.583Z" fill="#B91B22"/>
<path d="M80.4099 49.0337C80.3177 49.0337 80.2256 49.0504 80.125 49.1007L66.1673 55.3758C65.7903 55.5434 65.6562 56.0126 65.8908 56.3561L68.798 60.6708C68.932 60.8634 69.1415 60.964 69.3509 60.964C69.5185 60.964 69.686 60.9053 69.8117 60.7797L80.8539 50.1898C81.3147 49.7458 80.9461 49.0337 80.4015 49.0337H80.4099Z" fill="#B91B22"/>
<path d="M47.7184 43.8564H26.0277C24.3388 43.8564 22.9697 45.2256 22.9697 46.9144V46.9228C22.9697 48.6117 24.3388 49.9808 26.0277 49.9808H47.7184C49.4072 49.9808 50.7763 48.6117 50.7763 46.9228V46.9144C50.7763 45.2256 49.4072 43.8564 47.7184 43.8564Z" fill="#767995"/>
<path d="M13.6289 73.7322H47.719C49.403 73.7322 50.777 72.3582 50.777 70.6742C50.777 68.9902 49.403 67.6162 47.719 67.6162H15.9496L13.6289 73.7405V73.7322Z" fill="#767995"/>
<path d="M20.2388 62.1286H54.6306C56.3146 62.1286 57.6886 60.7546 57.6886 59.0707C57.6886 57.3867 56.3146 56.0127 54.6306 56.0127H22.5512L20.2305 62.137L20.2388 62.1286Z" fill="#767995"/>
<path d="M16.5103 62.1286H11.4584C9.77438 62.1286 8.40039 60.7546 8.40039 59.0707C8.40039 57.3867 9.77438 56.0127 11.4584 56.0127H18.831L16.5103 62.137V62.1286Z" fill="#767995"/>
<path d="M10.1099 73.7322H5.05797C3.37399 73.7322 2 72.3582 2 70.6742C2 68.9902 3.37399 67.6162 5.05797 67.6162H12.4306L10.1099 73.7405V73.7322Z" fill="#767995"/>
</g>
</svg>
