<svg width="104" height="104" viewBox="0 0 104 104" fill="none" xmlns="http://www.w3.org/2000/svg">
<mask id="mask0_1345_1598" style="mask-type:alpha" maskUnits="userSpaceOnUse" x="0" y="0" width="104" height="104">
<rect width="104" height="104" fill="#D9D9D9"/>
</mask>
<g mask="url(#mask0_1345_1598)">
<path d="M44.8347 37.8906C48.9319 37.8906 52.2533 34.5691 52.2533 30.4719C52.2533 26.3747 48.9319 23.0532 44.8347 23.0532C40.7375 23.0532 37.416 26.3747 37.416 30.4719C37.416 34.5691 40.7375 37.8906 44.8347 37.8906Z" fill="#B91B22"/>
<path d="M35.2923 67.4092C33.4897 67.4092 31.999 68.8045 31.687 70.6505L30.1443 84.6125C30.1443 84.6125 29.399 88.9199 32.3543 89.5265C36.0203 90.2805 36.5057 86.4845 36.5057 86.4845L38.8977 72.1845C38.9497 71.9245 38.9757 71.6472 38.9757 71.3698C38.9757 69.1858 37.329 67.4178 35.301 67.4178L35.2923 67.4092Z" fill="#B91B22"/>
<path d="M64.8112 30.6281C64.5772 29.5015 63.6326 28.5741 62.5059 28.3575C61.2752 28.1235 60.1399 28.6608 59.5072 29.5708L59.4812 29.6055L53.1806 38.6968C53.0159 38.9308 52.7732 39.1041 52.4959 39.1821L47.8852 40.4388C47.6859 40.4908 47.4779 40.5081 47.2699 40.4735L37.2946 38.9135C35.7606 38.5928 34.6686 39.3295 34.6686 39.3295L24.4679 45.1015C23.5406 45.6908 22.8992 46.6788 22.7779 47.8228H22.7606L21.6339 55.6835V55.7614C21.4692 57.0528 22.1799 58.3441 23.3932 58.8208C25.2046 59.5315 26.5652 58.1881 27.0592 56.6368L28.6886 51.2201C28.7666 50.9861 28.9226 50.7955 29.1392 50.6741L32.8052 48.8628C33.0999 48.6981 33.4639 48.9321 33.4379 49.2701L32.3546 61.3601C32.3546 61.4035 32.3459 61.5075 32.3459 61.5508C32.3286 61.7848 32.3459 61.9581 32.3632 62.2008C32.5106 63.8995 33.6632 65.2514 35.1279 65.6068L46.4379 68.1981C47.0099 68.3281 47.4086 68.8481 47.3912 69.4375L47.0792 77.5234C47.0706 77.6968 47.0706 77.8615 47.0792 78.0348C47.2352 79.8895 48.7779 81.2675 50.5199 81.1201C52.0972 80.9901 53.2846 79.6468 53.3886 78.0261L54.2899 65.7801C54.3159 65.5375 54.3246 65.2861 54.2986 65.0348C54.1599 63.3881 52.9899 62.0795 51.5252 61.7848L46.0392 60.4761C45.5452 60.3548 45.2159 59.8781 45.2766 59.3755L46.5939 49.2441C46.6632 48.7155 47.0359 48.2735 47.5559 48.1261L56.4392 45.5435C57.3926 45.2661 58.1986 44.6248 58.6666 43.7668L64.6032 32.4655C64.8546 31.9195 64.9499 31.2781 64.8112 30.6021V30.6281Z" fill="#B91B22"/>
<path d="M73.4691 14.508L65.8685 0C62.6705 3.198 54.8531 3.11133 54.8531 3.11133C48.2491 3.11133 44.6611 7.176 44.6611 7.176L44.7478 7.34067L65.2011 45.5953L67.8531 42.9173L55.4858 19.3267C57.1845 18.434 59.5245 17.628 62.4625 17.628C62.4625 17.628 70.2798 17.7147 73.4778 14.5167L73.4691 14.508Z" fill="#767995"/>
<path d="M12.9847 99.5974H24.2773V93.9208C24.2773 92.7075 25.2653 91.7194 26.4787 91.7194H41.8013V86.0428C41.8013 84.8294 42.7893 83.8414 44.0027 83.8414H59.3253V78.1648C59.3253 76.9515 60.3133 75.9635 61.5267 75.9635H76.8493V70.2868C76.8493 69.0734 77.8373 68.0854 79.0507 68.0854H93.498L91.5133 72.4881H81.252V78.1648C81.252 79.3781 80.264 80.3661 79.0507 80.3661H63.728V86.0428C63.728 87.2561 62.74 88.2441 61.5267 88.2441H46.204V93.9208C46.204 95.1341 45.216 96.1221 44.0027 96.1221H28.68V101.799C28.68 103.012 27.692 104 26.4787 104H11L12.9847 99.5974Z" fill="#B91B22"/>
</g>
</svg>
