<?xml version="1.0" encoding="UTF-8"?>
<svg id="_レイヤー_1" data-name="レイヤー_1" xmlns="http://www.w3.org/2000/svg" version="1.1" viewBox="0 0 538 327">
  <!-- Generator: Adobe Illustrator 29.8.3, SVG Export Plug-In . SVG Version: 2.1.1 Build 3)  -->
  <defs>
    <style>
      .st0 {
        fill: #b91b22;
        stroke: #b91b22;
        stroke-miterlimit: 10;
      }
    </style>
  </defs>
  <path class="st0" d="M31.2,85.9c-6.2,0-11.6-1.2-16.3-3.7-4.7-2.5-8.4-5.9-11-10.3-2.6-4.5-3.8-9.6-3.8-15.5v-26.9c0-5.8,1.3-11,3.8-15.5,2.6-4.5,6.3-7.9,11-10.3C19.6,1.2,25,0,31.2,0s11.4,1.2,16.1,3.6c4.7,2.4,8.4,5.7,10.9,9.8,2.6,4.1,4,8.6,4,13.7v.8c0,.4-.2.8-.5,1.1-.2.2-.6.4-1,.4h-14c-.4,0-.8-.1-1.1-.4-.2-.3-.4-.7-.4-1.1v-.4c0-3.7-1.3-6.8-3.8-9.2-2.6-2.6-6-3.8-10.2-3.8s-7.8,1.4-10.4,4.1c-2.6,2.6-3.8,6.1-3.8,10.4v27.8c0,4.3,1.4,7.8,4.2,10.6,2.8,2.6,6.4,4,10.7,4s7.5-1.1,10-3.2c2.5-2.2,3.7-5.3,3.7-9.2v-5.4c0-.4-.2-.6-.6-.6h-13.4c-.4,0-.8-.1-1.1-.4-.2-.3-.4-.7-.4-1.1v-11c0-.4.1-.7.4-1,.3-.3.7-.5,1.1-.5h29.3c.4,0,.7.2,1,.5.3.2.5.6.5,1v15.8c0,6.1-1.3,11.4-3.8,15.8-2.6,4.5-6.2,7.9-10.9,10.3-4.6,2.3-10,3.5-16.2,3.5Z"/>
  <path class="st0" d="M111,86.3c-6.2,0-11.8-1.3-16.6-3.8-4.7-2.6-8.4-6.1-11-10.7-2.6-4.6-4-10-4-16v-25.7c0-5.9,1.3-11.2,4-15.7s6.3-8.1,11-10.6C99.3,1.3,104.8,0,111,0s11.8,1.3,16.6,3.8c4.8,2.5,8.5,6,11.2,10.6s4,9.8,4,15.7v25.7c0,6-1.3,11.3-4,16s-6.4,8.2-11.2,10.8c-4.7,2.5-10.2,3.7-16.6,3.7ZM111,71.8c4.4,0,8-1.4,10.7-4.2,2.7-2.8,4.1-6.5,4.1-11.2v-26.4c0-4.6-1.4-8.4-4.1-11.2-2.6-2.9-6.2-4.3-10.7-4.3s-8,1.4-10.7,4.3c-2.6,2.8-4,6.5-4,11.2v26.4c0,4.6,1.3,8.4,4,11.2,2.7,2.8,6.3,4.2,10.7,4.2Z"/>
  <path class="st0" d="M51.5,161.2c-.5.2-.5.5,0,.7,7.6,3.9,11.4,10.4,11.4,19.6s-2.6,13.6-7.9,17.6c-5.3,3.9-12.2,5.9-20.8,5.9H3.1c-.4,0-.8-.1-1.1-.4-.2-.3-.4-.7-.4-1.1v-81.1c0-.4.1-.7.4-1,.3-.3.7-.5,1.1-.5h30.1c19,0,28.4,7.7,28.4,23s-3.4,13.7-10.2,17.2ZM19.2,135.5c-.4,0-.6.2-.6.6v18.7c0,.4.2.6.6.6h14c3.8,0,6.7-.9,8.8-2.6,2.1-1.8,3.1-4.2,3.1-7.2s-1-5.6-3.1-7.3c-2.1-1.8-5-2.8-8.8-2.8h-14ZM34.2,190.3c3.7,0,6.6-.9,8.6-2.8,2.1-1.9,3.1-4.5,3.1-7.8s-1-5.8-3.1-7.7c-2.1-1.9-5-2.9-8.8-2.9h-14.9c-.4,0-.6.2-.6.6v19.9c0,.4.2.6.6.6h15Z"/>
  <path class="st0" d="M140.4,134c0,.4-.2.8-.5,1.1s-.6.4-1,.4h-39.4c-.4,0-.6.2-.6.6v18.6c0,.4.2.6.6.6h25.8c.4,0,.7.2,1,.5.3.2.5.6.5,1v11.6c0,.4-.2.8-.5,1.1-.2.2-.6.4-1,.4h-25.8c-.4,0-.6.2-.6.6v19.4c0,.4.2.6.6.6h39.4c.4,0,.7.2,1,.5.3.2.5.6.5,1v11.6c0,.4-.2.8-.5,1.1-.2.2-.6.4-1,.4h-55.4c-.4,0-.8-.1-1.1-.4-.2-.3-.4-.7-.4-1.1v-81.1c0-.4.1-.7.4-1s.7-.5,1.1-.5h55.4c.4,0,.7.2,1,.5.3.2.5.6.5,1v11.6Z"/>
  <path class="st0" d="M180.9,204.8c-.4,0-.8-.1-1.1-.4-.2-.3-.4-.7-.4-1.1v-30.4c0-.3,0-.6-.1-.7l-24.7-49.7c-.2-.3-.2-.6-.2-.7,0-.6.4-1,1.3-1h15.1c.8,0,1.4.4,1.7,1.1l15,31.9c.2.5.5.5.7,0l15-31.9c.3-.7.9-1.1,1.7-1.1h15.4c.6,0,.9.2,1.1.5.2.2.2.6,0,1.2l-25,49.7c0,.2-.1.4-.1.7v30.4c0,.4-.2.8-.5,1.1-.2.2-.6.4-1,.4h-13.9Z"/>
  <path class="st0" d="M263.9,206.3c-6.2,0-11.8-1.3-16.6-3.8-4.7-2.6-8.4-6.1-11-10.7-2.6-4.6-4-10-4-16v-25.7c0-5.9,1.3-11.2,4-15.7,2.6-4.6,6.3-8.1,11-10.6,4.8-2.6,10.3-3.8,16.6-3.8s11.8,1.3,16.6,3.8c4.8,2.5,8.5,6,11.2,10.6,2.6,4.6,4,9.8,4,15.7v25.7c0,6-1.3,11.3-4,16-2.6,4.6-6.4,8.2-11.2,10.8-4.7,2.5-10.2,3.7-16.6,3.7ZM263.9,191.8c4.4,0,8-1.4,10.7-4.2s4.1-6.5,4.1-11.2v-26.4c0-4.6-1.4-8.4-4.1-11.2-2.6-2.9-6.2-4.3-10.7-4.3s-8,1.4-10.7,4.3c-2.6,2.8-4,6.5-4,11.2v26.4c0,4.6,1.3,8.4,4,11.2,2.7,2.8,6.3,4.2,10.7,4.2Z"/>
  <path class="st0" d="M362.8,122.4c0-.4.1-.7.4-1,.3-.3.7-.5,1.1-.5h14c.4,0,.7.2,1,.5.3.2.5.6.5,1v81.1c0,.4-.2.8-.5,1.1-.2.2-.6.4-1,.4h-13.6c-.8,0-1.4-.3-1.7-1l-31.1-51.4c-.2-.2-.3-.3-.5-.2-.2,0-.2.2-.2.5l.2,50.6c0,.4-.2.8-.5,1.1-.2.2-.6.4-1,.4h-14c-.4,0-.8-.1-1.1-.4-.2-.3-.4-.7-.4-1.1v-81.1c0-.4.1-.7.4-1,.3-.3.7-.5,1.1-.5h13.6c.8,0,1.4.3,1.7,1l31,51.1c.2.2.3.4.5.4.2,0,.2-.3.2-.6v-50.4Z"/>
  <path class="st0" d="M401.1,205c-.4,0-.8-.1-1.1-.4-.2-.3-.4-.7-.4-1.1v-81.1c0-.4.1-.7.4-1,.3-.3.7-.5,1.1-.5h30c6,0,11.2,1.1,15.7,3.2,4.6,2.1,8.1,5,10.6,8.9,2.5,3.8,3.7,8.3,3.7,13.3v33.1c0,5-1.2,9.5-3.7,13.3-2.5,3.8-6,6.8-10.6,9-4.5,2.1-9.7,3.1-15.7,3.1h-30ZM416.6,189.8c0,.4.2.6.6.6h14.5c3.7,0,6.6-1.2,8.9-3.7,2.3-2.5,3.5-5.8,3.6-10v-27.6c0-4.2-1.2-7.5-3.5-10-2.2-2.5-5.3-3.7-9.1-3.7h-14.4c-.4,0-.6.2-.6.6v53.8Z"/>
  <path class="st0" d="M51.5,281.2c-.5.2-.5.5,0,.7,7.6,3.9,11.4,10.4,11.4,19.6s-2.6,13.6-7.9,17.6c-5.3,3.9-12.2,5.9-20.8,5.9H3.1c-.4,0-.8-.1-1.1-.4-.2-.3-.4-.7-.4-1.1v-81.1c0-.4.1-.7.4-1,.3-.3.7-.5,1.1-.5h30.1c19,0,28.4,7.7,28.4,23s-3.4,13.7-10.2,17.2ZM19.2,255.5c-.4,0-.6.2-.6.6v18.7c0,.4.2.6.6.6h14c3.8,0,6.7-.9,8.8-2.6,2.1-1.8,3.1-4.2,3.1-7.2s-1-5.6-3.1-7.3c-2.1-1.8-5-2.8-8.8-2.8h-14ZM34.2,310.3c3.7,0,6.6-.9,8.6-2.8,2.1-1.9,3.1-4.5,3.1-7.8s-1-5.8-3.1-7.7c-2.1-1.9-5-2.9-8.8-2.9h-14.9c-.4,0-.6.2-.6.6v19.9c0,.4.2.6.6.6h15Z"/>
  <path class="st0" d="M111.9,326.3c-6.2,0-11.8-1.3-16.6-3.8-4.7-2.6-8.4-6.1-11-10.7-2.6-4.6-4-10-4-16v-25.7c0-5.9,1.3-11.2,4-15.7s6.3-8.1,11-10.6c4.8-2.6,10.3-3.8,16.6-3.8s11.8,1.3,16.6,3.8c4.8,2.5,8.5,6,11.2,10.6s4,9.8,4,15.7v25.7c0,6-1.3,11.3-4,16-2.6,4.6-6.4,8.2-11.2,10.8-4.7,2.5-10.2,3.7-16.6,3.7ZM111.9,311.8c4.4,0,8-1.4,10.7-4.2s4.1-6.5,4.1-11.2v-26.4c0-4.6-1.4-8.4-4.1-11.2-2.6-2.9-6.2-4.3-10.7-4.3s-8,1.4-10.7,4.3c-2.6,2.8-4,6.5-4,11.2v26.4c0,4.6,1.3,8.4,4,11.2,2.7,2.8,6.3,4.2,10.7,4.2Z"/>
  <path class="st0" d="M208.6,325c-.8,0-1.4-.4-1.7-1.1l-15-33.2c-.2-.3-.4-.5-.7-.5h-11.2c-.4,0-.6.2-.6.6v32.8c0,.4-.2.8-.5,1.1-.2.2-.6.4-1,.4h-14c-.4,0-.8-.1-1.1-.4-.2-.3-.4-.7-.4-1.1v-81.1c0-.4.1-.7.4-1s.7-.5,1.1-.5h34.3c5.1,0,9.6,1,13.4,3.1,3.9,2.1,6.9,5,9,8.9,2.2,3.8,3.2,8.3,3.2,13.3s-1.4,10.1-4.1,14c-2.7,3.8-6.5,6.6-11.4,8.2-.4.2-.5.4-.4.8l16.3,34c.2.3.2.6.2.7,0,.6-.4,1-1.3,1h-14.8ZM180,255.5c-.4,0-.6.2-.6.6v20.5c0,.4.2.6.6.6h15.7c3.4,0,6.1-1,8.2-3,2.2-2,3.2-4.6,3.2-7.8s-1.1-5.8-3.2-7.8c-2.1-2.1-4.8-3.1-8.2-3.1h-15.7Z"/>
  <path class="st0" d="M243.7,325c-.4,0-.8-.1-1.1-.4-.2-.3-.4-.7-.4-1.1v-81.1c0-.4.1-.7.4-1s.7-.5,1.1-.5h30c6,0,11.2,1.1,15.7,3.2,4.6,2.1,8.1,5,10.6,8.9s3.7,8.3,3.7,13.3v33.1c0,5-1.2,9.5-3.7,13.3s-6,6.8-10.6,9c-4.5,2.1-9.7,3.1-15.7,3.1h-30ZM259.1,309.8c0,.4.2.6.6.6h14.5c3.7,0,6.6-1.2,8.9-3.7,2.3-2.5,3.5-5.8,3.6-10v-27.6c0-4.2-1.2-7.5-3.5-10-2.2-2.5-5.3-3.7-9.1-3.7h-14.4c-.4,0-.6.2-.6.6v53.8Z"/>
  <path class="st0" d="M380.7,254c0,.4-.2.8-.5,1.1-.2.2-.6.4-1,.4h-39.4c-.4,0-.6.2-.6.6v18.6c0,.4.2.6.6.6h25.8c.4,0,.7.2,1,.5.3.2.5.6.5,1v11.6c0,.4-.2.8-.5,1.1s-.6.4-1,.4h-25.8c-.4,0-.6.2-.6.6v19.4c0,.4.2.6.6.6h39.4c.4,0,.7.2,1,.5.3.2.5.6.5,1v11.6c0,.4-.2.8-.5,1.1-.2.2-.6.4-1,.4h-55.4c-.4,0-.8-.1-1.1-.4-.2-.3-.4-.7-.4-1.1v-81.1c0-.4.1-.7.4-1,.3-.3.7-.5,1.1-.5h55.4c.4,0,.7.2,1,.5.3.2.5.6.5,1v11.6Z"/>
  <path class="st0" d="M444.6,325c-.8,0-1.4-.4-1.7-1.1l-15-33.2c-.2-.3-.4-.5-.7-.5h-11.2c-.4,0-.6.2-.6.6v32.8c0,.4-.2.8-.5,1.1s-.6.4-1,.4h-14c-.4,0-.8-.1-1.1-.4-.2-.3-.4-.7-.4-1.1v-81.1c0-.4.1-.7.4-1,.3-.3.7-.5,1.1-.5h34.3c5.1,0,9.6,1,13.4,3.1,3.9,2.1,6.9,5,9,8.9,2.2,3.8,3.2,8.3,3.2,13.3s-1.4,10.1-4.1,14c-2.7,3.8-6.5,6.6-11.4,8.2-.4.2-.5.4-.4.8l16.3,34c.2.3.2.6.2.7,0,.6-.4,1-1.3,1h-14.8ZM416,255.5c-.4,0-.6.2-.6.6v20.5c0,.4.2.6.6.6h15.7c3.4,0,6.1-1,8.2-3,2.2-2,3.2-4.6,3.2-7.8s-1.1-5.8-3.2-7.8c-2.1-2.1-4.8-3.1-8.2-3.1h-15.7Z"/>
  <path class="st0" d="M507,325.9c-6.4,0-12-1-16.8-3-4.8-2.1-8.5-5-11.2-8.8-2.6-3.8-3.8-8.3-3.8-13.3v-2.6c0-.4.1-.7.4-1,.3-.3.7-.5,1.1-.5h13.7c.4,0,.7.2,1,.5.3.2.5.6.5,1v1.8c0,3.2,1.5,5.9,4.4,8.2,3,2.2,7,3.2,12,3.2s7.4-.9,9.5-2.6c2.1-1.8,3.1-4.1,3.1-6.7s-.6-3.5-1.9-4.8c-1.3-1.4-3-2.5-5.3-3.5-2.2-1-5.6-2.4-10.4-4.2-5.4-1.8-9.9-3.7-13.7-5.6-3.7-1.9-6.8-4.5-9.4-7.8-2.5-3.4-3.7-7.5-3.7-12.4s1.2-9,3.7-12.6c2.5-3.6,5.9-6.4,10.3-8.3s9.5-2.9,15.2-2.9,11.5,1.1,16.2,3.2c4.8,2.2,8.5,5.2,11.2,9.1,2.7,3.8,4.1,8.3,4.1,13.4v1.8c0,.4-.2.8-.5,1.1-.2.2-.6.4-1,.4h-13.8c-.4,0-.8-.1-1.1-.4-.2-.3-.4-.7-.4-1.1v-1c0-3.4-1.4-6.2-4.2-8.5-2.7-2.4-6.5-3.6-11.3-3.6s-6.7.8-8.9,2.4c-2.1,1.6-3.1,3.8-3.1,6.6s.6,3.7,1.8,5c1.3,1.4,3.1,2.6,5.5,3.7,2.5,1,6.3,2.5,11.4,4.3,5.7,2.1,10.1,3.9,13.3,5.5,3.3,1.6,6.2,4,8.8,7.2,2.6,3.1,4,7.2,4,12.2,0,7.5-2.8,13.5-8.3,17.9-5.5,4.3-13,6.5-22.4,6.5Z"/>
</svg>