<svg width="570" height="108" viewBox="0 0 570 108" fill="none" xmlns="http://www.w3.org/2000/svg">
<path opacity="0.3" d="M56.25 51.75C55.75 52.05 55.75 52.35 56.25 52.65C66.85 57.15 72.15 65.5 72.15 77.7C72.15 86.9 69.1 94 63 99C56.9 104 48.95 106.5 39.15 106.5H1.8C0.800001 106.5 0.3 106 0.3 105V2.99999C0.3 1.99999 0.800001 1.49999 1.8 1.49999H37.95C48.35 1.49999 56.4 3.89999 62.1 8.7C67.9 13.4 70.8 20.3 70.8 29.4C70.8 40.2 65.95 47.65 56.25 51.75ZM15.3 13.95C14.9 13.95 14.7 14.15 14.7 14.55V46.2C14.7 46.6 14.9 46.8 15.3 46.8H37.95C43.75 46.8 48.3 45.35 51.6 42.45C55 39.55 56.7 35.6 56.7 30.6C56.7 25.5 55 21.45 51.6 18.45C48.3 15.45 43.75 13.95 37.95 13.95H15.3ZM39.15 93.9C44.85 93.9 49.35 92.35 52.65 89.25C56.05 86.05 57.75 81.75 57.75 76.35C57.75 70.95 56.05 66.7 52.65 63.6C49.25 60.4 44.6 58.8 38.7 58.8H15.3C14.9 58.8 14.7 59 14.7 59.4V93.3C14.7 93.7 14.9 93.9 15.3 93.9H39.15ZM171.154 12.45C171.154 13.45 170.654 13.95 169.654 13.95H116.404C116.004 13.95 115.804 14.15 115.804 14.55V46.8C115.804 47.2 116.004 47.4 116.404 47.4H153.004C154.004 47.4 154.504 47.9 154.504 48.9V58.35C154.504 59.35 154.004 59.85 153.004 59.85H116.404C116.004 59.85 115.804 60.05 115.804 60.45V93.45C115.804 93.85 116.004 94.05 116.404 94.05H169.654C170.654 94.05 171.154 94.55 171.154 95.55V105C171.154 106 170.654 106.5 169.654 106.5H102.904C101.904 106.5 101.404 106 101.404 105V2.99999C101.404 1.99999 101.904 1.49999 102.904 1.49999H169.654C170.654 1.49999 171.154 1.99999 171.154 2.99999V12.45ZM224.352 106.35C223.352 106.35 222.852 105.85 222.852 104.85V62.7C222.852 62.3 222.802 62.05 222.702 61.95L191.502 3.3C191.402 3.09999 191.352 2.84999 191.352 2.55C191.352 1.84999 191.752 1.49999 192.552 1.49999H204.852C205.752 1.49999 206.352 1.84999 206.652 2.55L229.602 46.5C229.702 46.7 229.852 46.8 230.052 46.8C230.252 46.8 230.402 46.7 230.502 46.5L253.452 2.55C253.752 1.84999 254.352 1.49999 255.252 1.49999H267.702C268.202 1.49999 268.552 1.69999 268.752 2.09999C269.052 2.4 269.052 2.8 268.752 3.3L237.402 61.95C237.302 62.05 237.252 62.3 237.252 62.7V104.85C237.252 105.85 236.752 106.35 235.752 106.35H224.352ZM323.602 107.85C316.302 107.85 309.852 106.35 304.252 103.35C298.652 100.35 294.302 96.15 291.202 90.75C288.102 85.25 286.552 78.95 286.552 71.85V36.15C286.552 29.05 288.102 22.8 291.202 17.4C294.302 12 298.652 7.8 304.252 4.8C309.852 1.8 316.302 0.299999 323.602 0.299999C331.002 0.299999 337.502 1.8 343.102 4.8C348.702 7.8 353.052 12 356.152 17.4C359.252 22.8 360.802 29.05 360.802 36.15V71.85C360.802 78.95 359.252 85.25 356.152 90.75C353.052 96.15 348.702 100.35 343.102 103.35C337.502 106.35 331.002 107.85 323.602 107.85ZM323.602 95.4C330.402 95.4 335.902 93.3 340.102 89.1C344.302 84.9 346.402 79.35 346.402 72.45V36C346.402 29 344.302 23.4 340.102 19.2C335.902 14.9 330.402 12.75 323.602 12.75C316.802 12.75 311.302 14.9 307.102 19.2C303.002 23.4 300.952 29 300.952 36V72.45C300.952 79.35 303.002 84.9 307.102 89.1C311.302 93.3 316.802 95.4 323.602 95.4ZM452.012 2.99999C452.012 1.99999 452.512 1.49999 453.512 1.49999H464.912C465.912 1.49999 466.412 1.99999 466.412 2.99999V105C466.412 106 465.912 106.5 464.912 106.5H453.962C453.262 106.5 452.662 106.15 452.162 105.45L405.212 28.8C405.112 28.5 404.962 28.4 404.762 28.5C404.562 28.5 404.462 28.65 404.462 28.95L404.612 105C404.612 106 404.112 106.5 403.112 106.5H391.712C390.712 106.5 390.212 106 390.212 105V2.99999C390.212 1.99999 390.712 1.49999 391.712 1.49999H402.812C403.512 1.49999 404.112 1.84999 404.612 2.55L451.412 79.2C451.512 79.5 451.662 79.65 451.862 79.65C452.062 79.55 452.162 79.35 452.162 79.05L452.012 2.99999ZM498.529 106.5C497.529 106.5 497.029 106 497.029 105V2.99999C497.029 1.99999 497.529 1.49999 498.529 1.49999H534.829C545.229 1.49999 553.529 4.24999 559.729 9.74999C565.929 15.15 569.029 22.4 569.029 31.5V76.5C569.029 85.6 565.929 92.9 559.729 98.4C553.529 103.8 545.229 106.5 534.829 106.5H498.529ZM511.429 93.45C511.429 93.85 511.629 94.05 512.029 94.05H535.429C541.229 94.05 545.829 92.3 549.229 88.8C552.729 85.2 554.529 80.4 554.629 74.4V33.6C554.629 27.6 552.879 22.85 549.379 19.35C545.979 15.75 541.329 13.95 535.429 13.95H512.029C511.629 13.95 511.429 14.15 511.429 14.55V93.45Z" fill="#767995"/>
</svg>
