<svg width="667" height="108" viewBox="0 0 667 108" fill="none" xmlns="http://www.w3.org/2000/svg">
<path opacity="0.3" d="M56.25 51.75C55.75 52.05 55.75 52.35 56.25 52.65C66.85 57.15 72.15 65.5 72.15 77.7C72.15 86.9 69.1 94 63 99C56.9 104 48.95 106.5 39.15 106.5H1.8C0.800001 106.5 0.3 106 0.3 105V2.99999C0.3 1.99999 0.800001 1.49999 1.8 1.49999H37.95C48.35 1.49999 56.4 3.89999 62.1 8.7C67.9 13.4 70.8 20.3 70.8 29.4C70.8 40.2 65.95 47.65 56.25 51.75ZM15.3 13.95C14.9 13.95 14.7 14.15 14.7 14.55V46.2C14.7 46.6 14.9 46.8 15.3 46.8H37.95C43.75 46.8 48.3 45.35 51.6 42.45C55 39.55 56.7 35.6 56.7 30.6C56.7 25.5 55 21.45 51.6 18.45C48.3 15.45 43.75 13.95 37.95 13.95H15.3ZM39.15 93.9C44.85 93.9 49.35 92.35 52.65 89.25C56.05 86.05 57.75 81.75 57.75 76.35C57.75 70.95 56.05 66.7 52.65 63.6C49.25 60.4 44.6 58.8 38.7 58.8H15.3C14.9 58.8 14.7 59 14.7 59.4V93.3C14.7 93.7 14.9 93.9 15.3 93.9H39.15ZM135.311 107.85C128.011 107.85 121.561 106.35 115.961 103.35C110.361 100.35 106.011 96.15 102.911 90.75C99.8105 85.25 98.2605 78.95 98.2605 71.85V36.15C98.2605 29.05 99.8105 22.8 102.911 17.4C106.011 12 110.361 7.8 115.961 4.8C121.561 1.8 128.011 0.299999 135.311 0.299999C142.711 0.299999 149.211 1.8 154.811 4.8C160.411 7.8 164.761 12 167.861 17.4C170.961 22.8 172.511 29.05 172.511 36.15V71.85C172.511 78.95 170.961 85.25 167.861 90.75C164.761 96.15 160.411 100.35 154.811 103.35C149.211 106.35 142.711 107.85 135.311 107.85ZM135.311 95.4C142.111 95.4 147.611 93.3 151.811 89.1C156.011 84.9 158.111 79.35 158.111 72.45V36C158.111 29 156.011 23.4 151.811 19.2C147.611 14.9 142.111 12.75 135.311 12.75C128.511 12.75 123.011 14.9 118.811 19.2C114.711 23.4 112.661 29 112.661 36V72.45C112.661 79.35 114.711 84.9 118.811 89.1C123.011 93.3 128.511 95.4 135.311 95.4ZM261.771 106.5C260.971 106.5 260.421 106.15 260.121 105.45L239.121 60.6C239.021 60.3 238.821 60.15 238.521 60.15H216.921C216.521 60.15 216.321 60.35 216.321 60.75V105C216.321 106 215.821 106.5 214.821 106.5H203.421C202.421 106.5 201.921 106 201.921 105V2.99999C201.921 1.99999 202.421 1.49999 203.421 1.49999H243.771C249.771 1.49999 255.021 2.74999 259.521 5.25C264.121 7.75 267.671 11.25 270.171 15.75C272.671 20.25 273.921 25.45 273.921 31.35C273.921 38.35 272.071 44.3 268.371 49.2C264.771 54 259.721 57.25 253.221 58.95C252.821 59.15 252.721 59.4 252.921 59.7L274.671 104.7C274.771 104.9 274.821 105.15 274.821 105.45C274.821 106.15 274.421 106.5 273.621 106.5H261.771ZM216.921 13.95C216.521 13.95 216.321 14.15 216.321 14.55V48.15C216.321 48.55 216.521 48.75 216.921 48.75H241.971C247.271 48.75 251.521 47.2 254.721 44.1C257.921 40.9 259.521 36.7 259.521 31.5C259.521 26.2 257.921 21.95 254.721 18.75C251.521 15.55 247.271 13.95 241.971 13.95H216.921ZM302.913 106.5C301.913 106.5 301.413 106 301.413 105V2.99999C301.413 1.99999 301.913 1.49999 302.913 1.49999H339.213C349.613 1.49999 357.913 4.24999 364.113 9.74999C370.313 15.15 373.413 22.4 373.413 31.5V76.5C373.413 85.6 370.313 92.9 364.113 98.4C357.913 103.8 349.613 106.5 339.213 106.5H302.913ZM315.813 93.45C315.813 93.85 316.013 94.05 316.413 94.05H339.813C345.613 94.05 350.213 92.3 353.613 88.8C357.113 85.2 358.913 80.4 359.013 74.4V33.6C359.013 27.6 357.263 22.85 353.763 19.35C350.363 15.75 345.713 13.95 339.813 13.95H316.413C316.013 13.95 315.813 14.15 315.813 14.55V93.45ZM471.388 12.45C471.388 13.45 470.888 13.95 469.888 13.95H416.638C416.238 13.95 416.038 14.15 416.038 14.55V46.8C416.038 47.2 416.238 47.4 416.638 47.4H453.238C454.238 47.4 454.738 47.9 454.738 48.9V58.35C454.738 59.35 454.238 59.85 453.238 59.85H416.638C416.238 59.85 416.038 60.05 416.038 60.45V93.45C416.038 93.85 416.238 94.05 416.638 94.05H469.888C470.888 94.05 471.388 94.55 471.388 95.55V105C471.388 106 470.888 106.5 469.888 106.5H403.138C402.138 106.5 401.638 106 401.638 105V2.99999C401.638 1.99999 402.138 1.49999 403.138 1.49999H469.888C470.888 1.49999 471.388 1.99999 471.388 2.99999V12.45ZM558.636 106.5C557.836 106.5 557.286 106.15 556.986 105.45L535.986 60.6C535.886 60.3 535.686 60.15 535.386 60.15H513.786C513.386 60.15 513.186 60.35 513.186 60.75V105C513.186 106 512.686 106.5 511.686 106.5H500.286C499.286 106.5 498.786 106 498.786 105V2.99999C498.786 1.99999 499.286 1.49999 500.286 1.49999H540.636C546.636 1.49999 551.886 2.74999 556.386 5.25C560.986 7.75 564.536 11.25 567.036 15.75C569.536 20.25 570.786 25.45 570.786 31.35C570.786 38.35 568.936 44.3 565.236 49.2C561.636 54 556.586 57.25 550.086 58.95C549.686 59.15 549.586 59.4 549.786 59.7L571.536 104.7C571.636 104.9 571.686 105.15 571.686 105.45C571.686 106.15 571.286 106.5 570.486 106.5H558.636ZM513.786 13.95C513.386 13.95 513.186 14.15 513.186 14.55V48.15C513.186 48.55 513.386 48.75 513.786 48.75H538.836C544.136 48.75 548.386 47.2 551.586 44.1C554.786 40.9 556.386 36.7 556.386 31.5C556.386 26.2 554.786 21.95 551.586 18.75C548.386 15.55 544.136 13.95 538.836 13.95H513.786ZM630.679 107.7C622.979 107.7 616.279 106.5 610.579 104.1C604.979 101.7 600.629 98.3 597.529 93.9C594.529 89.5 593.029 84.35 593.029 78.45V74.1C593.029 73.1 593.529 72.6 594.529 72.6H605.479C606.479 72.6 606.979 73.1 606.979 74.1V77.7C606.979 82.8 609.179 87 613.579 90.3C617.979 93.6 624.029 95.25 631.729 95.25C638.629 95.25 643.829 93.8 647.329 90.9C650.829 88 652.579 84.2 652.579 79.5C652.579 76.4 651.679 73.75 649.879 71.55C648.079 69.35 645.429 67.35 641.929 65.55C638.529 63.65 633.529 61.4 626.929 58.8C619.629 56 613.829 53.45 609.529 51.15C605.329 48.85 601.829 45.85 599.029 42.15C596.229 38.35 594.829 33.6 594.829 27.9C594.829 19.3 597.879 12.55 603.979 7.64999C610.179 2.75 618.529 0.299999 629.029 0.299999C636.429 0.299999 642.929 1.55 648.529 4.05C654.129 6.54999 658.429 10.05 661.429 14.55C664.529 19.05 666.079 24.25 666.079 30.15V33.15C666.079 34.15 665.579 34.65 664.579 34.65H653.329C652.329 34.65 651.829 34.15 651.829 33.15V30.9C651.829 25.7 649.729 21.4 645.529 18C641.429 14.5 635.729 12.75 628.429 12.75C622.229 12.75 617.429 14.05 614.029 16.65C610.629 19.15 608.929 22.8 608.929 27.6C608.929 30.9 609.779 33.6 611.479 35.7C613.179 37.8 615.679 39.7 618.979 41.4C622.379 43 627.529 45.1 634.429 47.7C641.529 50.5 647.279 53.1 651.679 55.5C656.079 57.8 659.729 60.9 662.629 64.8C665.529 68.6 666.979 73.35 666.979 79.05C666.979 87.85 663.729 94.85 657.229 100.05C650.829 105.15 641.979 107.7 630.679 107.7Z" fill="#767995"/>
</svg>
