<svg width="175" height="108" viewBox="0 0 175 108" fill="none" xmlns="http://www.w3.org/2000/svg">
<path opacity="0.3" d="M37.05 107.7C29.85 107.7 23.45 106.3 17.85 103.5C12.35 100.6 8.05 96.55 4.95 91.35C1.95 86.05 0.45 80 0.45 73.2V34.8C0.45 27.9 1.95 21.85 4.95 16.65C8.05 11.45 12.35 7.45 17.85 4.65C23.45 1.75 29.85 0.299999 37.05 0.299999C44.25 0.299999 50.6 1.7 56.1 4.5C61.6 7.3 65.85 11.2 68.85 16.2C71.95 21.1 73.5 26.65 73.5 32.85V34.5C73.5 35.5 73 36 72 36H60.6C59.6 36 59.1 35.5 59.1 34.5V33.15C59.1 27.15 57.05 22.3 52.95 18.6C48.95 14.8 43.65 12.9 37.05 12.9C30.35 12.9 24.95 14.85 20.85 18.75C16.85 22.65 14.85 27.85 14.85 34.35V73.65C14.85 80.15 16.95 85.35 21.15 89.25C25.35 93.15 30.85 95.1 37.65 95.1C44.25 95.1 49.45 93.4 53.25 90C57.15 86.5 59.1 81.75 59.1 75.75V64.2C59.1 63.8 58.9 63.6 58.5 63.6H38.25C37.25 63.6 36.75 63.1 36.75 62.1V52.8C36.75 51.8 37.25 51.3 38.25 51.3H72C73 51.3 73.5 51.8 73.5 52.8V71.85C73.5 83.35 70.2 92.2 63.6 98.4C57.1 104.6 48.25 107.7 37.05 107.7ZM136.992 107.85C129.692 107.85 123.242 106.35 117.642 103.35C112.042 100.35 107.692 96.15 104.592 90.75C101.492 85.25 99.9422 78.95 99.9422 71.85V36.15C99.9422 29.05 101.492 22.8 104.592 17.4C107.692 12 112.042 7.8 117.642 4.8C123.242 1.8 129.692 0.299999 136.992 0.299999C144.392 0.299999 150.892 1.8 156.492 4.8C162.092 7.8 166.442 12 169.542 17.4C172.642 22.8 174.192 29.05 174.192 36.15V71.85C174.192 78.95 172.642 85.25 169.542 90.75C166.442 96.15 162.092 100.35 156.492 103.35C150.892 106.35 144.392 107.85 136.992 107.85ZM136.992 95.4C143.792 95.4 149.292 93.3 153.492 89.1C157.692 84.9 159.792 79.35 159.792 72.45V36C159.792 29 157.692 23.4 153.492 19.2C149.292 14.9 143.792 12.75 136.992 12.75C130.192 12.75 124.692 14.9 120.492 19.2C116.392 23.4 114.342 29 114.342 36V72.45C114.342 79.35 116.392 84.9 120.492 89.1C124.692 93.3 130.192 95.4 136.992 95.4Z" fill="#767995"/>
</svg>
